<?xml version="1.0" encoding="utf-8"?>
<!-- Generator: Adobe Illustrator 24.1.2, SVG Export Plug-In . SVG Version: 6.00 Build 0)  -->
<svg version="1.1" id="Слой_2" xmlns="http://www.w3.org/2000/svg" xmlns:xlink="http://www.w3.org/1999/xlink" x="0px" y="0px"
	 viewBox="0 0 2000 2000" style="enable-background:new 0 0 2000 2000;" xml:space="preserve">
<style type="text/css">
	.st0{fill:#E6A139;stroke:#000000;stroke-width:5;stroke-miterlimit:10;}
	.st1{fill:#CA6D2A;}
	.st2{fill:none;stroke:#000000;stroke-miterlimit:10;}
	.st3{fill:none;}
	.st4{fill:none;stroke:#000000;stroke-width:4;stroke-miterlimit:10;}
	.st5{fill:#E9E513;stroke:#000000;stroke-width:2;stroke-miterlimit:10;}
	.st6{fill:none;stroke:#000000;stroke-width:2;stroke-miterlimit:10;}
	.st7{fill:#E0C373;stroke:#000000;stroke-width:2;stroke-miterlimit:10;}
	.st8{fill:#649B40;stroke:#000000;stroke-width:2;stroke-miterlimit:10;}
	.st9{fill:#C6554A;stroke:#000000;stroke-width:2;stroke-miterlimit:10;}
	.st10{fill:#352F2F;stroke:#000000;stroke-width:2;stroke-miterlimit:10;}
	.st11{fill:#E6A139;stroke:#000000;stroke-width:2;stroke-miterlimit:10;}
	.st12{fill:#8E2320;stroke:#000000;stroke-width:2;stroke-miterlimit:10;}
	.st13{fill:#93B548;stroke:#000000;stroke-width:2;stroke-miterlimit:10;}
	.st14{fill:#C6554A;stroke:#000000;stroke-width:3;stroke-miterlimit:10;}
	.st15{fill:#F2C7C7;stroke:#000000;stroke-miterlimit:10;}
	.st16{fill:#876E5C;stroke:#000000;stroke-width:2;stroke-miterlimit:10;}
	.st17{fill:#C46765;stroke:#000000;stroke-width:3;stroke-miterlimit:10;}
	.st18{fill:#C46765;stroke:#000000;stroke-miterlimit:10;}
	.st19{fill:#BCB3B3;stroke:#000000;stroke-miterlimit:10;}
	.st20{fill:#B5528F;stroke:#000000;stroke-width:2;stroke-miterlimit:10;}
	.st21{fill:#E5B7B7;stroke:#000000;stroke-width:2;stroke-miterlimit:10;}
	.st22{fill:#BC2F2F;stroke:#000000;stroke-width:2;stroke-miterlimit:10;}
	.st23{fill:#CF785A;stroke:#000000;stroke-width:2;stroke-miterlimit:10;}
	.st24{fill:#BA6047;stroke:#000000;stroke-width:3;stroke-miterlimit:10;}
	.st25{fill:#E9A593;stroke:#000000;stroke-width:2;stroke-miterlimit:10;}
	.st26{fill:#3D8739;stroke:#000000;stroke-width:3;stroke-miterlimit:10;}
	.st27{fill:#31682D;stroke:#000000;stroke-width:2;stroke-miterlimit:10;}
	.st28{fill:#3D8739;stroke:#000000;stroke-width:2;stroke-miterlimit:10;}
	.st29{fill:#E6A139;stroke:#000000;stroke-width:3;stroke-miterlimit:10;}
	.st30{fill:#31682D;stroke:#000000;stroke-miterlimit:10;}
</style>
<g>
	<path class="st0" d="M980.81,1021.91c0,0,364.59,339.35,366.13,349.77c1.54,10.42,5.15,28.75,5.15,28.75s34.19,45.11,66.73,12.87
		s95.79-142.03,95.79-142.03l18.83-45.67c0,0,32.54-122.59,32.23-168.53c-0.31-45.94-56.2-38.4-56.2-38.4s-15.44,10.38-23.86,16.65
		C1477.18,1041.58,980.81,1021.91,980.81,1021.91"/>
	<path class="st1" d="M1356.69,1376c0,0,10.5,50.98,51.7,32.84c0,0,84.83-98.28,116.08-190.48s30.12-150.87,11.61-176.58
		c-18.51-25.71-47.02,6.11-39.91,30.84C1503.26,1097.35,1524.6,1242.31,1356.69,1376z"/>
	<path class="st0" d="M966,1010.33c0,0,339.89-364.37,350.26-365.84s28.62-4.98,28.62-4.98s45.08-34.07,13.25-67.02
		c-31.83-32.95-140.55-97.32-140.55-97.32l-45.28-19.25c0,0-121.66-33.57-167.34-33.57c-45.68,0-38.56,56.26-38.56,56.26
		s10.22,15.6,16.39,24.11C988.97,511.24,966,1010.33,966,1010.33"/>
	<path class="st0" d="M975.27,1012.62c0,0,365.39-338.48,366.96-348.89s5.22-28.73,5.22-28.73s34.29-45.03,66.76-12.71
		c32.46,32.32,95.45,142.26,95.45,142.26l18.72,45.72c0,0,32.25,122.67,31.83,168.61c-0.42,45.94-56.29,38.26-56.29,38.26
		s-15.42-10.42-23.82-16.71C1471.68,994.13,975.27,1012.62,975.27,1012.62"/>
	<path class="st1" d="M1353.47,659.31c0,0,10.5-50.98,51.7-32.84c0,0,84.83,98.28,116.08,190.48s30.12,150.87,11.61,176.58
		c-18.51,25.71-47.02-6.11-39.92-30.84C1500.04,937.97,1521.38,793,1353.47,659.31z"/>
	<path class="st1" d="M1315.98,630.76c0,0,50.95-10.63,32.7-51.78c0,0-98.5-84.58-190.78-115.58
		c-92.29-31.01-150.95-29.72-176.61-11.14c-25.66,18.58,6.23,47,30.94,39.83C1036.94,484.92,1181.85,463.2,1315.98,630.76z"/>
	<path class="st2" d="M959.09,405.14"/>
	<line class="st3" x1="1399.09" y1="1017.9" x2="519.09" y2="1017.9"/>
	<path class="st4" d="M984.15,496.64c0,0,231.28-30.73,325.77,141.84"/>
	<path class="st2" d="M1267.03,743.55c-13.19,9.91-30.03,23.66-30.03,23.66"/>
	<g>
		<path d="M705.61,1192.94c-11.85,3.43-24.06,5.55-36.34,6.76c-12.29,1.15-24.69,1.28-36.99,0.04c-6.15-0.62-12.27-1.58-18.3-2.93
			c-6.03-1.38-11.97-3.17-17.75-5.38c-11.51-4.53-22.36-10.88-31.58-19.1l0.06-0.08c9.58,7.76,20.38,13.92,31.87,18.24
			c5.73,2.19,11.63,3.97,17.61,5.35c5.98,1.41,12.05,2.43,18.16,3.1c12.23,1.34,24.6,1.31,36.86,0.26
			c12.26-1.07,24.48-3.05,36.36-6.35L705.61,1192.94z"/>
	</g>
	<g>
		<path d="M599.19,1198.79c-0.09-0.68-0.24-1.36-0.4-2.03c-0.15-0.67-0.33-1.33-0.56-1.96c-0.23-0.64-0.55-1.22-0.78-1.83
			c-0.24-0.61-0.48-1.2-0.77-1.87l0.07-0.07c0.7,0.29,1.22,0.88,1.6,1.5c0.4,0.63,0.5,1.37,0.66,2.06c0.29,1.39,0.37,2.8,0.29,4.19
			L599.19,1198.79z"/>
	</g>
	<g>
		<path d="M640.23,1188.57c-1.92,2.42-4.05,4.68-6.43,6.69c-1.19,1-2.43,2-3.89,2.66c-0.73,0.32-1.49,0.6-2.29,0.72
			c-0.79,0.13-1.63,0.13-2.38-0.14l0.02-0.1c1.55-0.04,2.9-0.67,4.21-1.38c1.3-0.72,2.6-1.49,3.84-2.39c1.23-0.9,2.4-1.89,3.54-2.92
			c1.14-1.02,2.26-2.09,3.31-3.21L640.23,1188.57z"/>
	</g>
	<g>
		<path d="M649.14,1212.32c-2.21-2.59-4.5-5.09-7.04-7.3c-1.27-1.11-2.64-2.08-3.99-3.04c-1.36-0.97-2.76-1.84-4.31-2.58l0.03-0.1
			c1.72,0.21,3.35,0.95,4.83,1.84c1.49,0.9,2.76,2.08,3.98,3.29c1.23,1.2,2.38,2.46,3.48,3.77c1.09,1.32,2.1,2.69,3.1,4.06
			L649.14,1212.32z"/>
	</g>
	<g>
		<path d="M677.96,1213.92c-0.66-1.48-1.51-2.88-2.39-4.24c-0.88-1.37-1.82-2.68-2.87-3.91c-1.05-1.22-2.2-2.35-3.36-3.44
			c-1.17-1.09-2.4-2.08-3.76-3.02l0.04-0.09c1.6,0.44,3.08,1.32,4.38,2.36c1.31,1.05,2.34,2.38,3.33,3.69
			c0.99,1.32,1.87,2.72,2.67,4.15c0.78,1.45,1.51,2.91,2.06,4.47L677.96,1213.92z"/>
	</g>
	<g>
		<path d="M672.96,1191.96c-1.49,1.44-3,2.86-4.52,4.26c-0.76,0.7-1.47,1.46-2.31,2.07c-0.83,0.61-1.69,1.2-2.66,1.65l-0.06-0.08
			c0.61-0.88,1.34-1.62,2.08-2.34c0.74-0.72,1.62-1.29,2.44-1.92c1.64-1.26,3.3-2.5,4.97-3.72L672.96,1191.96z"/>
	</g>
	<g>
		<path d="M695.67,1194.77c0.51-1.12,1.2-2.09,1.8-3.14c0.63-1.02,1.23-2.05,1.79-3.1c0.57-1.05,1-2.15,1.53-3.19
			c0.52-1.05,1-2.1,1.4-3.25l0.1,0.01c0.14,1.24-0.17,2.49-0.58,3.63c-0.42,1.16-1.1,2.19-1.76,3.2c-0.66,1.02-1.36,2-2.07,2.97
			c-0.71,0.97-1.52,1.88-2.12,2.89L695.67,1194.77z"/>
	</g>
	<path class="st2" d="M740.73,1201.7c0,0-27.63,8.47-38.83,0.38"/>
	<path class="st2" d="M657.2,1224.28c0,0-14.56-5.64-15.81-13.54"/>
	<path class="st2" d="M642.52,1187.29c0,0,3.97-11.58-18.54,4.87"/>
	<path class="st2" d="M683.6,1223.67c0,0-3.64,20.18-11.59-4.63"/>
	<path class="st2" d="M745.97,1175.04c0,0,23.39-20.55-12.07-0.41"/>
	<path class="st2" d="M717.03,1202.37c-1.4-0.11-10.94,0.54-11.42-3.48"/>
	<path class="st2" d="M710.23,1173.61c0,0,1.39-11.81-6.06,0.15c-7.45,11.96-10.84,5.97-10.84,5.97"/>
	<g>
		<path d="M797.63,1071.49c-13.96,0.62-27.82,2.76-41.43,5.86c-13.6,3.14-26.96,7.39-39.7,13.06c-6.37,2.84-12.57,6.04-18.55,9.62
			c-5.99,3.56-11.74,7.51-17.16,11.88c-5.45,4.33-10.57,9.09-15.24,14.26c-2.34,2.59-4.56,5.28-6.66,8.06
			c-2.12,2.77-4.12,5.63-5.99,8.58l-0.09-0.05c1.77-3.02,3.67-5.95,5.71-8.8c2.06-2.83,4.25-5.57,6.55-8.21
			c4.61-5.28,9.67-10.16,15.09-14.62c5.47-4.4,11.26-8.37,17.29-11.95c6.04-3.55,12.31-6.71,18.73-9.5
			c12.84-5.6,26.27-9.77,39.92-12.82c13.66-2.98,27.56-4.98,41.54-5.47L797.63,1071.49z"/>
	</g>
	<g>
		<path d="M680.38,1102.38c0.58,1.46,1,2.98,1.2,4.56c0.09,0.79,0.23,1.61,0.05,2.42c-0.17,0.8-0.5,1.61-1.11,2.18l-0.09-0.05
			c0.11-0.81,0.17-1.52,0.2-2.26c0.03-0.73,0.15-1.48,0.15-2.24c0.01-0.76-0.05-1.53-0.15-2.29c-0.08-0.77-0.19-1.54-0.35-2.3
			L680.38,1102.38z"/>
	</g>
	<g>
		<path d="M728.46,1099.04c-1.56-0.83-3.15-1.59-4.77-2.28c-1.61-0.71-3.25-1.35-4.91-1.89c-1.67-0.53-3.37-0.91-5.05-1.22
			c-1.68-0.3-3.41-0.48-5.09,0.05l-0.05-0.09c0.73-0.54,1.65-0.82,2.55-0.95c0.91-0.14,1.83-0.1,2.73-0.01
			c1.81,0.2,3.52,0.82,5.18,1.46c3.33,1.29,6.47,2.95,9.46,4.84L728.46,1099.04z"/>
	</g>
	<g>
		<path d="M729.37,1070.51c-0.58,1.81-1.17,3.63-1.87,5.41c-0.7,1.78-1.49,3.53-2.38,5.24c-0.88,1.71-1.82,3.41-3.09,4.89
			c-1.26,1.47-2.72,2.82-4.47,3.67l-0.06-0.08c1.42-1.29,2.63-2.71,3.74-4.21c1.12-1.5,2.22-3.03,3.17-4.66
			c1.91-3.26,3.45-6.75,4.85-10.3L729.37,1070.51z"/>
	</g>
	<g>
		<path d="M762.63,1083.96c-2.26-0.73-4.51-1.49-6.75-2.27c-1.12-0.39-2.27-0.7-3.35-1.2c-1.08-0.49-2.14-1.03-3.15-1.72l0.04-0.09
			c1.2,0.18,2.35,0.51,3.48,0.88c1.13,0.36,2.19,0.92,3.28,1.39c2.18,0.95,4.34,1.92,6.5,2.92L762.63,1083.96z"/>
	</g>
	<g>
		<path d="M786.27,1072.84c1.02,0.88,2.23,1.57,3.35,2.36c1.13,0.79,2.24,1.6,3.33,2.45c1.09,0.85,2.18,1.73,3.08,2.8
			c0.88,1.08,1.69,2.28,2.05,3.66l-0.09,0.04c-0.83-1.11-1.74-2.07-2.7-3.02c-0.95-0.94-1.86-1.95-2.86-2.87
			c-1-0.92-2.05-1.8-3.11-2.66c-1.04-0.9-2.16-1.69-3.13-2.7L786.27,1072.84z"/>
	</g>
	<path class="st2" d="M731.47,1099.51c0,0,8.62,10.97-21.88,1.3"/>
	<path class="st2" d="M762.32,1046.28c0,0-11.48-20.26-10.82,9"/>
	<path class="st2" d="M847.99,1076.35c0,0,32.99,13.74-12.91,4.67"/>
	<path class="st2" d="M809.86,1090.39c0,0,5.91,12.12-6.62,1.97c-12.53-10.16-13.96-2.58-13.96-2.58"/>
	<path class="st2" d="M473.67,1194.32c-1.24-1.62-11.1-27.18-12.19-51.01"/>
	<path class="st4" d="M1485.28,997.09c0,0,32.69-232.33-138.01-328.95"/>
	<path class="st2" d="M1474.23,989.05c0,0,10.3-97.2-15.49-156.09"/>
	<path class="st2" d="M1453.76,849.71c1.24,1.63,11.03,27.21,12.07,51.04"/>
	<path class="st2" d="M1466.55,992.51c0.78-3.14,6.82-74.01,0.82-89.04"/>
	<path class="st2" d="M1314.23,990.84c-19.26-2.13-118.55,3.56-118.55,3.56"/>
	<path class="st2" d="M1310.32,983.09c0,0-33.36-3.23-56.78-0.53"/>
	<path class="st2" d="M1056.99,963.26c0,0-45.22,22.18-53.57,35.41"/>
	<path class="st2" d="M1056.88,974.19c0,0-30.77,9.85-33.66,17.05"/>
	<path class="st2" d="M1508.32,997.31c0,0,50.59,20.08,34.31-50.87"/>
	<path class="st2" d="M1517.45,992.37c0,0,26.93,2.11,18.49-33.9"/>
	<path class="st2" d="M1459.94,702.97c0,0-67.02-131.49-107.2-47.55"/>
	<path class="st2" d="M1406.64,646.47c0,0-25.06-27.66-38.74,3.42"/>
	<path class="st5" d="M1331.75,913.88c-56.08-7.91-62.06-23.75-62.06-23.75c15.06-73.26-36.03-81.31-36.03-81.31
		s-14.17-23.36,52.76-64.98c0,0,76.41,34.49,65.85,134.68C1352.27,878.51,1352.35,916.78,1331.75,913.88z"/>
	<g>
		<path class="st6" d="M1242.96,796.94l51.87-35.44c0,0,70.12,66.64,44.45,132.51"/>
		<path class="st6" d="M1287.31,747.83c0,0,11.16,5.4,7.53,13.67"/>
		<line class="st6" x1="1304.3" y1="779.4" x2="1268.53" y2="797.7"/>
		<line class="st6" x1="1273.63" y1="804.94" x2="1292.01" y2="798"/>
		<line class="st6" x1="1306.47" y1="789.16" x2="1297.58" y2="793.95"/>
		<line class="st6" x1="1273.47" y1="819.88" x2="1315.18" y2="808.15"/>
		<line class="st6" x1="1278.82" y1="868.51" x2="1326.82" y2="880.52"/>
		<line class="st6" x1="1283.8" y1="850.62" x2="1303.86" y2="851.23"/>
		<line class="st6" x1="1314.77" y1="848.77" x2="1334.45" y2="849.92"/>
		<path class="st6" d="M1286.12,843.11c1.52,0.12,44.97-8.27,44.97-8.27"/>
		<line class="st6" x1="1272.7" y1="829.83" x2="1297.83" y2="824.17"/>
		<line class="st6" x1="1328.92" y1="825.09" x2="1311.51" y2="829.01"/>
		<path class="st6" d="M1310.73,900.45c0,0,10.39,3.71,16.18,2.88"/>
	</g>
	<g>
		<g>
			<path class="st5" d="M1093.97,981.79c2.02,1.28,4.07,2.42,6.15,3.45c33.09,16.31,72.94,2.06,79.04-3.93
				c5.78-5.67-13.97-49.64-22.32-63.69c-1.04-1.74-1.9-3.03-2.51-3.72c-5.57-6.26-44.41,1.77-44.41,1.77
				S1084.57,975.85,1093.97,981.79z"/>
			<path class="st5" d="M1159.46,977.02l13.71,5.07l3.61,0.97c0,0-60.25,21.29-81.08-2.11c0,0,11.32,4.53,15.58-1.18
				c0,0,19.6,12.89,32.86-1.48C1144.13,978.29,1153.92,988.91,1159.46,977.02c5.54-11.89-7.02-61.77-7.02-61.77"/>
			<line class="st5" x1="1116" y1="922.11" x2="1111.53" y2="938.4"/>
			<line class="st5" x1="1103.32" y1="958.86" x2="1098.97" y2="971.45"/>
			<line class="st5" x1="1120.92" y1="932.75" x2="1116.42" y2="945.78"/>
			<line class="st5" x1="1128.7" y1="932.59" x2="1121.52" y2="967.51"/>
			<line class="st5" x1="1132.43" y1="935.91" x2="1131.96" y2="943.91"/>
			<line class="st5" x1="1132.86" y1="949.59" x2="1130.02" y2="964.44"/>
			<line class="st5" x1="1144.71" y1="965.83" x2="1144.13" y2="978.29"/>
		</g>
	</g>
	<g>
		<path class="st7" d="M1284.95,742.62c0,0,27.54-12.75,30.87-27.08c3.33-14.32,67.28-39.8,97.85,40.17c0,0,33.44,14.73,20.72,37.15
			c-12.72,22.42,40.05-7.21-12.46,65.67l-68.38-26.3C1353.57,832.22,1339.8,765.12,1284.95,742.62z"/>
		<path class="st7" d="M1434.4,792.86c-10.1,14.1-25.15,11.26-25.15,11.26s46.52,5.45,35.23,15.84
			c-11.29,10.39-9.81,19.68-9.81,19.68"/>
		<path class="st7" d="M1298.85,749.74c0,0,13.6-2.04,20.62-17.55s34.79-32.65,79.75-4.07"/>
		<path class="st7" d="M1333.02,732.63c5.98,0.72,19.72,3.26,19.72,3.26"/>
		<path class="st7" d="M1360.51,737.72c0,0,27.31,13.76,29.07,34.54"/>
		<path class="st7" d="M1375.89,762.62c1.98,3.21,8.11,13.13,8.11,13.13"/>
		<line class="st7" x1="1364.7" y1="769.6" x2="1382.01" y2="783.29"/>
		<path class="st7" d="M1353.52,776.59c0,0,18.87,21.6,30.03,23.54"/>
		<path class="st7" d="M1363.17,779.66c0,0,8.46,10.11,16.42,14.04"/>
		<path class="st7" d="M1356.42,808.17c6.28-0.58,26.97,2.45,26.45,15.94"/>
		<path class="st7" d="M1353.03,756.97c6.52,2.5,6.52,2.5,6.52,2.5"/>
		<path class="st7" d="M1343.55,741.63c0,0,27.44,4.11,24.91,8.98"/>
	</g>
	<g>
		<g>
			<path class="st7" d="M1163.95,931.05c4.53,5.59,6.37,40.31,23.61,24.74c17.24-15.57,17.4,15.6,28.72,3.54
				c11.32-12.06,15.71-39.98,20.82-45.36s11.65-31.25-4.42-37.62c-16.07-6.37,0.4-37.52-22.25-38.26
				c-22.65-0.74-29.47,21.54-29.47,21.54s-28.5,36.48-22.75,40.35C1163.96,903.87,1163.95,931.05,1163.95,931.05z"/>
			<line class="st7" x1="1183.66" y1="952.49" x2="1212.31" y2="938.36"/>
			<line class="st7" x1="1195.31" y1="937.28" x2="1210.22" y2="929.35"/>
			<line class="st7" x1="1174.78" y1="882.12" x2="1182.86" y2="869.29"/>
			<path class="st7" d="M1190.32,856.26c0,0,3.66-9.67,10.45-10.36"/>
			<path class="st7" d="M1187.21,878.3c0,0,4.71-2.37,15.14-18.32"/>
			<path class="st7" d="M1189.74,870.03c-0.82-1.3,7.07-16.28,9.81-16.48"/>
			<path class="st7" d="M1206.15,847.57c5.41-1.81,5.41-1.81,5.41-1.81"/>
			<path class="st7" d="M1189.42,886.66c0.65-0.15,6.79-2.08,15.61-19.56"/>
			<line class="st7" x1="1194.85" y1="930.86" x2="1207.27" y2="924.26"/>
			<line class="st7" x1="1203.99" y1="918.01" x2="1200.48" y2="920.41"/>
			<path class="st7" d="M1194.58,916.84c0,0,11.13-3.52,15.1-9.61"/>
			<path class="st7" d="M1196.58,910.31c0,0,8.46-4.8,9.5-8.18"/>
			<line class="st7" x1="1195.34" y1="904.37" x2="1201.01" y2="900.57"/>
			<path class="st7" d="M1193.1,898.12c0,0,5.01,1.34,9.48-7.38"/>
			<path class="st7" d="M1192.32,892.72c0,0,6.45-3.16,8.03-6.51"/>
			<path class="st7" d="M1223.52,897.22c0,0,5.24-9.18,11.64-13.12"/>
			<line class="st7" x1="1218.58" y1="887.33" x2="1223.77" y2="885.1"/>
			<line class="st7" x1="1213.1" y1="883.71" x2="1219.34" y2="879.2"/>
			<line class="st7" x1="1210.06" y1="877.71" x2="1214.32" y2="875.2"/>
			<line class="st7" x1="1207.94" y1="873.22" x2="1211.89" y2="865.04"/>
			<path class="st7" d="M1216.86,931.41c0,0,8.6-4.31,12.76-5.46"/>
			<path class="st7" d="M1217.53,916.8c0,0,11.05-17.66,25-17.53"/>
			<path class="st7" d="M1221.88,921.81c0,0,10.76-3.97,12.28-2.46"/>
		</g>
	</g>
	<path class="st8" d="M1400.93,948.05c24.81-24.93,16.72-70.46,1.15-83.36s-18.36-18.04-20.35-20.14c0,0-28.91,32.64-18.6,62.68
		c10.31,30.04,22.8,38.41,28.28,41.08S1400.93,948.05,1400.93,948.05z"/>
	<g>
		<path d="M1383.8,859.36c-0.01,3.63-0.01,7.26,0.06,10.88c0.04,3.63,0.12,7.25,0.26,10.88c0.26,7.25,0.62,14.49,1.32,21.7
			c0.64,7.21,1.59,14.4,3.11,21.47c0.78,3.53,1.73,7.03,3.03,10.39c1.29,3.36,2.95,6.65,5.52,9.23c-2.73-2.43-4.53-5.73-5.98-9.05
			c-1.41-3.37-2.45-6.87-3.33-10.4c-1.69-7.09-2.64-14.32-3.36-21.55c-0.62-7.24-1-14.51-1.1-21.77
			C1383.26,873.87,1383.35,866.61,1383.8,859.36z"/>
	</g>
	<g>
		<path d="M1409.56,890.46c-1.31,2.86-2.77,5.64-4.28,8.4c-1.5,2.76-3.12,5.46-4.81,8.11c-1.72,2.63-3.49,5.25-5.57,7.64
			c-1.07,1.16-2.13,2.4-3.65,3.11c-0.73,0.3-1.46,0.59-2.21,0.85c-0.38,0.12-0.75,0.25-1.14,0.33c-0.19,0.04-0.39,0.08-0.59,0.07
			c-0.1,0-0.21-0.01-0.3-0.07c-0.1-0.08-0.05-0.21,0-0.28c-0.04,0.08-0.07,0.2,0.02,0.25c0.08,0.04,0.18,0.04,0.27,0.02
			c0.19-0.02,0.38-0.08,0.56-0.14c0.37-0.12,0.73-0.27,1.08-0.43c0.71-0.32,1.41-0.68,2.1-1.04c1.31-0.71,2.3-1.97,3.27-3.16
			c1.9-2.45,3.63-5.06,5.32-7.69c1.7-2.63,3.33-5.3,4.99-7.96l2.46-4.01L1409.56,890.46z"/>
	</g>
	<g>
		<path d="M1402.09,871.69c-1.1,2.94-2.32,5.83-3.56,8.71c-1.23,2.88-2.55,5.73-3.89,8.56c-1.37,2.82-2.74,5.64-4.32,8.37
			c-1.6,2.76-3.55,5.17-5.15,7.88c0.62-1.45,1.4-2.81,2.16-4.19c0.79-1.37,1.65-2.66,2.32-4.06c1.4-2.78,2.75-5.61,4.09-8.44
			c1.36-2.82,2.7-5.65,4.1-8.45l2.09-4.21C1400.65,874.48,1401.34,873.07,1402.09,871.69z"/>
	</g>
	<g>
		<path d="M1370.23,901.88c0.49,1.56,0.99,3.1,1.55,4.63c0.53,1.54,1.08,3.06,1.7,4.56c1.22,3,2.46,6,3.96,8.86
			c0.34,0.73,0.75,1.43,1.13,2.14c0.38,0.71,0.77,1.42,1.21,2.1c0.42,0.69,0.83,1.39,1.27,2.06c0.47,0.66,0.92,1.32,1.38,1.99
			c0.44,0.68,0.99,1.27,1.48,1.91l0.76,0.95l0.84,0.87l0.83,0.89c0.27,0.3,0.56,0.59,0.88,0.84c0.62,0.52,1.23,1.05,1.85,1.59
			c-2.8-1.7-5.17-4.04-7.25-6.58c-2.08-2.55-3.74-5.41-5.26-8.3c-1.5-2.92-2.73-5.96-3.79-9.05
			C1371.72,908.24,1370.81,905.09,1370.23,901.88z"/>
	</g>
	<g>
		<path d="M1372.94,875.23c1.85,2.16,3.45,4.47,5.01,6.81c0.77,1.18,1.52,2.36,2.25,3.57c0.74,1.2,1.41,2.43,2.13,3.65
			c-1.03-0.99-1.93-2.09-2.78-3.22c-0.86-1.12-1.65-2.29-2.44-3.46C1375.59,880.22,1374.13,877.81,1372.94,875.23z"/>
	</g>
	<path class="st8" d="M1323.33,984.63c10.5-7.35,24.48-2.03,24.48-2.03c48.69,12.06,53.67-29.36,53.67-29.36s-15.34-6.73-24.14-13.3
		c-8.8-6.56-33.81,0.88-50.25,30.27L1323.33,984.63z"/>
	<g>
		<path d="M1392.97,952.48c-0.59,1.15-1.51,2.1-2.43,3c-0.93,0.9-1.93,1.72-2.95,2.51c-2.07,1.55-4.22,2.99-6.48,4.26
			c-4.48,2.6-9.29,4.59-14.18,6.23c-4.93,1.56-10,2.72-15.13,3.32c-1.28,0.15-2.57,0.3-3.86,0.36c-1.29,0.07-2.57,0.2-3.87,0.18
			c-1.29-0.02-2.58,0.03-3.87-0.04l-3.86-0.23l3.86-0.04c1.28-0.01,2.57-0.13,3.85-0.19c1.28-0.03,2.56-0.21,3.83-0.32
			c1.28-0.1,2.54-0.3,3.81-0.49c5.06-0.76,10.07-1.89,14.92-3.51c4.87-1.55,9.62-3.53,14.12-5.95c2.27-1.18,4.45-2.53,6.56-3.98
			c1.06-0.72,2.09-1.48,3.06-2.31C1391.32,954.44,1392.29,953.58,1392.97,952.48z"/>
	</g>
	<g>
		<path d="M1367.82,948.52c1.33,1.33,2.76,2.53,4.21,3.68c1.47,1.13,2.99,2.17,4.6,3.06c1.61,0.89,3.31,1.57,5.07,2.08
			c1.77,0.48,3.61,0.65,5.5,0.65c-1.83,0.39-3.78,0.49-5.67,0.11c-1.88-0.37-3.7-1.05-5.38-1.96c-1.66-0.94-3.22-2.06-4.62-3.34
			C1370.13,951.52,1368.86,950.09,1367.82,948.52z"/>
	</g>
	<g>
		<path d="M1354.7,957.42c1.73,0.76,3.47,1.45,5.21,2.13c1.74,0.68,3.49,1.32,5.27,1.9c1.76,0.61,3.55,1.14,5.35,1.63
			c1.8,0.51,3.62,0.91,5.46,1.34c-1.88-0.05-3.78-0.2-5.64-0.58c-1.86-0.34-3.7-0.84-5.49-1.44
			C1361.27,961.18,1357.79,959.6,1354.7,957.42z"/>
	</g>
	<g>
		<path d="M1391.49,955.54c0.22,0.94,0.28,1.9,0.26,2.85c-0.02,0.96-0.14,1.91-0.33,2.86c-0.22,0.94-0.51,1.87-0.94,2.74
			c-0.44,0.86-1,1.68-1.74,2.31c0.4-0.88,0.73-1.73,1.01-2.6c0.26-0.88,0.5-1.76,0.69-2.66
			C1390.85,959.24,1391.12,957.42,1391.49,955.54z"/>
	</g>
	<g>
		<path d="M1380.39,962.22c-0.05,2.56-0.58,5.09-1.44,7.51c-0.45,1.2-1,2.39-1.76,3.46c-0.38,0.53-0.83,1.03-1.35,1.45
			c-0.53,0.39-1.15,0.72-1.8,0.74c1.2-0.48,1.88-1.56,2.49-2.6c0.58-1.08,1.06-2.22,1.48-3.39
			C1378.88,967.05,1379.57,964.64,1380.39,962.22z"/>
	</g>
	<path class="st8" d="M1402.15,951.87c0,0,9.96,33.77,36.19,7.45l6.35-6.92c0,0-15.59-18.31-25.89-17.99
		c-10.3,0.32-9.63,2.92-9.63,2.92S1400.49,947.66,1402.15,951.87z"/>
	<g>
		<path d="M1433.54,948.85c-2.3,1.01-4.86,1.22-7.32,1.49c-2.48,0.25-4.98,0.32-7.46,0.38c-2.49,0.03-4.98,0.01-7.46-0.11
			l-3.73-0.19c-1.24-0.11-2.48-0.19-3.72-0.34c1.24-0.07,2.49-0.09,3.73-0.15l3.72-0.08l7.44-0.12c2.48-0.03,4.96-0.07,7.43-0.14
			c1.24-0.03,2.48-0.08,3.7-0.19C1431.11,949.33,1432.33,949.18,1433.54,948.85z"/>
	</g>
	<g>
		<path d="M1414.59,942.46c-0.64,1.53-1.53,2.87-2.48,4.17c-0.97,1.28-2,2.52-3.28,3.57c0.64-1.53,1.53-2.87,2.48-4.17
			C1412.28,944.75,1413.31,943.51,1414.59,942.46z"/>
	</g>
	<g>
		<path d="M1421.76,943.1c-0.44,1.4-1.14,2.64-1.9,3.84c-0.79,1.18-1.63,2.32-2.74,3.3c0.44-1.41,1.14-2.64,1.9-3.84
			C1419.81,945.22,1420.66,944.08,1421.76,943.1z"/>
	</g>
	<g>
		<path d="M1413.06,950.66c1.14,1.79,2.33,3.44,3.74,4.92c0.69,0.75,1.43,1.45,2.21,2.11c0.77,0.68,1.62,1.26,2.47,1.91
			c-1.03-0.28-2.03-0.69-2.93-1.28c-0.92-0.56-1.74-1.27-2.48-2.06c-0.73-0.79-1.38-1.66-1.89-2.61
			C1413.66,952.72,1413.25,951.71,1413.06,950.66z"/>
	</g>
	<path class="st2" d="M1328.92,922.11c0,0-15.58,12.73-14.15,17.16"/>
	<path class="st2" d="M1253.54,915.25c0.6,1.97,5.82,43.3-10.58,52.26"/>
	<path class="st2" d="M1267.73,921.25c0,0,5.44,22.55,0,28.8"/>
	<path class="st2" d="M1354.69,925.95c0,0-45.01,20.8-42.74,42.84"/>
	<path class="st2" d="M1146.24,885.1c2.61-10.75,37.25-53.24,49.07-52.48"/>
	<path class="st2" d="M1207.9,1340.15"/>
	<g>
		<path class="st0" d="M963.13,1022.92c0,0,339.89,364.37,350.26,365.84s28.62,4.98,28.62,4.98s45.08,34.07,13.25,67.02
			c-31.83,32.95-140.55,97.32-140.55,97.32l-45.28,19.25c0,0-121.66,33.57-167.34,33.57c-45.68,0-38.56-56.26-38.56-56.26
			s10.22-15.6,16.39-24.11C986.1,1522.02,963.13,1022.92,963.13,1022.92"/>
		<path class="st1" d="M1316.94,1402.87c0,0,50.95,10.63,32.7,51.78c0,0-98.5,84.58-190.78,115.58
			c-92.29,31.01-150.95,29.72-176.61,11.14c-25.66-18.58,6.23-47,30.94-39.83C1037.91,1548.71,1182.81,1570.43,1316.94,1402.87z"/>
		<path class="st4" d="M983.28,1535.73c0,0,231.28,30.73,325.77-141.84"/>
		<path class="st2" d="M991.17,1524.54c0,0,96.73,9.46,155.04-17.02"/>
		<path class="st2" d="M1137.82,1501.22c-1.6,1.26-26.95,11.35-50.63,12.61"/>
		<path class="st2" d="M987.66,1516.85c3.13,0.76,73.64,6.18,88.53,0"/>
		<path class="st2" d="M1223.59,1319.59c-9.97-13.17-23.8-29.98-23.8-29.98"/>
		<path class="st2" d="M1012.96,1104.66c0,0-22.47-45.28-35.69-53.55"/>
		<path class="st2" d="M1002.09,1104.66c0,0-10.08-30.86-17.27-33.7"/>
		<path class="st2" d="M983.28,1558.9c0,0-19.5,51.06,50.89,34.04"/>
		<path class="st2" d="M988.27,1568.04c0,0-1.85,27.11,33.87,18.28"/>
		<path class="st2" d="M1275.46,1507.52c0,0,130.11-68.62,46.28-108.26"/>
		<path class="st2" d="M1331.14,1453.39c0,0,27.26-25.46-3.76-38.94"/>
		<g>
			<path class="st9" d="M1068.98,1421.4c0-4.66-6.95-11.65,4.63-24.46s6.55-22.9-3.35-31.7c-9.9-8.8-22.77-21.22-44.12,5.18
				c0,0-8.49,15.53-6.95,19.15s-17.5-0.78-6.95,27.95c0,0-7.46,35.2,18.01,47.88c0,0,6.18,28.73,39.62,28.21
				c0,0,27.79,9.83,36.79-6.73c0,0,28.82-0.52,33.19-23.03c0,0,29.29-21.48,33.56-57.71c0,0,17.52-23.16-9.5-88.77
				c0,0-1.93,67.93-11.58,75.7c-9.65,7.76-28.64,54.35-58.32,52.41C1064.35,1443.53,1068.98,1421.4,1068.98,1421.4z"/>
			<path class="st9" d="M1153.51,1396.56c0,0,11.58-2.33,17.75,7.76"/>
			<line class="st9" x1="1117.81" y1="1436.54" x2="1139.87" y2="1463.85"/>
			<path class="st9" d="M1126.49,1436.54c0,0,65.61-77.25,15.82,15.92"/>
			<path class="st9" d="M1102.56,1456.34c0,0,6.95,13.97,4.25,28.34"/>
			<path class="st9" d="M1083.26,1447.8c0,0-12.35,11.26-15.05,42.31"/>
			<path class="st9" d="M1033.09,1463.85c1.16-2.07,18.14-0.91,30.88-27.3"/>
			<line class="st9" x1="1014.18" y1="1418.3" x2="1053.93" y2="1421.01"/>
			<path class="st9" d="M1019.2,1389.57c0,0,36.67,12.03,37.05,14.75"/>
			<path class="st9" d="M1030.77,1385.3c0.39-1.55,12.35-26.79,25.47-16.69c13.12,10.09,13.12,10.09,13.12,10.09"/>
			<path class="st9" d="M1022.67,1396.33c0,0-10.81,8-3.47,16.54"/>
			<path class="st9" d="M1022.67,1429.47c0,0-2.32,17.94,15.05,26.87"/>
			<path class="st9" d="M1043.9,1468.96c14.28,15.72,20.07,13.39,20.07,13.39"/>
			<path class="st9" d="M1168.56,1343.76c0,1.55,5.84,42.62,2.7,49.69"/>
		</g>
		<g>
			<path class="st9" d="M1072.36,1271.65c-3.89-0.05-9.81,5.75-20.39-4.18c-10.58-9.93-19.07-5.79-26.53,2.49
				c-7.46,8.28-17.98,19.02,3.85,37.35c0,0,12.88,7.35,15.93,6.08c3.04-1.27-0.84,14.78,23.28,6.17c0,0,29.33,6.69,40.2-14.71
				c0,0,24.07-4.91,24-33.19c0,0,8.52-23.38-5.22-31.17c0,0-0.12-24.37-18.89-28.31c0,0-17.63-24.99-47.86-28.99
				c0,0-19.16-15.06-74.27,7.07c0,0,56.74,2.37,63.13,10.61s45.1,24.8,43.16,49.86C1090.8,1275.8,1072.36,1271.65,1072.36,1271.65z"
				/>
			<path class="st9" d="M1052.52,1199.93c0,0-1.82-9.81,6.68-14.92"/>
			<line class="st9" x1="1085.54" y1="1230.54" x2="1108.59" y2="1212.19"/>
			<path class="st9" d="M1085.63,1223.2c0,0-63.84-56.3,13.47-13.2"/>
			<path class="st9" d="M1101.92,1243.64c0,0,11.75-5.72,23.72-3.28"/>
			<path class="st9" d="M1094.57,1259.86c0,0,9.27,10.56,35.19,13.18"/>
			<path class="st9" d="M1107.44,1302.45c-1.72-1-0.56-15.34-22.48-26.39"/>
			<line class="st9" x1="1069.18" y1="1317.94" x2="1071.88" y2="1284.37"/>
			<path class="st9" d="M1045.23,1313.39c0,0,10.45-30.86,12.73-31.16"/>
			<path class="st9" d="M1041.78,1303.56c-1.29-0.34-22.25-10.73-13.67-21.71c8.58-10.98,8.58-10.98,8.58-10.98"/>
			<path class="st9" d="M1050.91,1310.53c0,0,6.56,9.22,13.78,3.11"/>
			<path class="st9" d="M1078.6,1310.88c0,0,14.97,2.15,22.62-12.43"/>
			<path class="st9" d="M1111.83,1293.37c13.29-11.9,11.41-16.82,11.41-16.82"/>
			<path class="st9" d="M1008.57,1186.64c1.3,0.02,35.67-4.48,41.55-1.75"/>
		</g>
		<ellipse class="st10" cx="1245.11" cy="1413.82" rx="25.56" ry="25.71"/>
		<ellipse class="st11" cx="1245.11" cy="1412.86" rx="18.66" ry="18.77"/>
		<ellipse class="st10" cx="1117.81" cy="1347.65" rx="21.42" ry="20.72"/>
		<ellipse class="st11" cx="1119.22" cy="1347.7" rx="14.22" ry="14.31"/>
		<ellipse class="st10" cx="1010.26" cy="1139.55" rx="22.44" ry="22.57"/>
		<ellipse class="st11" cx="1010.26" cy="1139.55" rx="12.19" ry="12.26"/>
		<path class="st2" d="M1199.79,1347.65c-3.56,12.03,19.44,69.26-26.23,113.42"/>
		<path class="st2" d="M1207.9,1358.84c0,0,6.97,25.15,0,50.83"/>
		<path class="st2" d="M1024.61,1210.2c0,0,76.34,19.08,51.58,44.09"/>
		<line class="st2" x1="986.46" y1="1199.93" x2="1014.18" y2="1204.31"/>
		<path class="st2" d="M1053.93,1229.53c0,0,28.02,4.75,10.76,19.59"/>
		<path class="st2" d="M1008.57,1265.5c0,0-29.47,71.44,45.37,67.89"/>
		<path class="st2" d="M996.44,1276.05c0,0-18.79,59.35,37.61,67.71"/>
		<path class="st2" d="M1033.49,1495.88c15.26,9.83,30.39,11.42,45.12,9.43"/>
		<path class="st2" d="M1002.84,1375.77c0,0-25.56,49.92,0,88.08c2.07,3.08,4.13,5.96,6.2,8.65"/>
	</g>
	<g>
		
			<ellipse transform="matrix(1 -6.003767e-03 6.003767e-03 1 -6.7537 8.2949)" class="st12" cx="1378.22" cy="1129.04" rx="81.55" ry="88"/>
		<g>
			<path class="st12" d="M1362.73,1115.54c0,0-42.22,11.83-17.75-19.27c24.46-31.1,19.17-0.18,22.55,8.71s7.43,7.64,14.95-17.54
				s-5.61-31.44-35.02-16.69s-35.21,57.45-31.74,67.21c3.47,9.76,25.37-1.71,36.44-9.56
				C1363.23,1120.54,1362.73,1115.54,1362.73,1115.54z"/>
			<ellipse class="st12" cx="1354.4" cy="1079.14" rx="1.28" ry="1.29"/>
			<ellipse class="st12" cx="1362.6" cy="1077.13" rx="1.41" ry="1.43"/>
			<ellipse class="st12" cx="1347.25" cy="1084.27" rx="1.28" ry="1.29"/>
			<ellipse class="st12" cx="1341.24" cy="1090.45" rx="1.28" ry="1.29"/>
			<ellipse class="st12" cx="1335.86" cy="1097.62" rx="1.28" ry="1.29"/>
			<ellipse class="st12" cx="1331.77" cy="1115.39" rx="1.28" ry="1.29"/>
			<ellipse class="st12" cx="1332.5" cy="1105.99" rx="1.28" ry="1.29"/>
		</g>
		<g>
			<path class="st12" d="M1373.21,1151.5c0,0,31.16,31.09-7.73,25.13c-38.89-5.96-9.69-16.7-3.73-24.09
				c5.96-7.38,2.87-10.31-22.51-4.38c-25.38,5.93-24.23,20.55,3.07,38.97s66.88,2.27,73.54-5.62c6.66-7.89-14.09-21.37-26.34-27.16
				S1373.21,1151.5,1373.21,1151.5z"/>
			<ellipse class="st12" cx="1346.07" cy="1176.89" rx="1.28" ry="1.29"/>
			<ellipse class="st12" cx="1340.28" cy="1170.71" rx="1.41" ry="1.43"/>
			<ellipse class="st12" cx="1354.05" cy="1180.6" rx="1.28" ry="1.29"/>
			<ellipse class="st12" cx="1362.34" cy="1182.8" rx="1.28" ry="1.29"/>
			<ellipse class="st12" cx="1371.18" cy="1183.94" rx="1.28" ry="1.29"/>
			<ellipse class="st12" cx="1388.49" cy="1178.69" rx="1.28" ry="1.29"/>
			<ellipse class="st12" cx="1380.05" cy="1182.72" rx="1.28" ry="1.29"/>
		</g>
		<g>
			<path class="st12" d="M1399.4,1119.12c0,0,12.85-42.29,25.64-4.73s-10.17,16.41-19.41,14.5c-9.24-1.91-10.38,2.21,6.59,22.16
				c16.97,19.96,29.27,12.15,32.78-20.81c3.52-32.97-29.01-60.88-39.02-63.18c-10.01-2.3-12.23,22.51-11.63,36.15
				C1394.96,1116.85,1399.4,1119.12,1399.4,1119.12z"/>
			<ellipse class="st12" cx="1434.28" cy="1131.62" rx="1.28" ry="1.29"/>
			<ellipse class="st12" cx="1431.54" cy="1139.67" rx="1.41" ry="1.43"/>
			<ellipse class="st12" cx="1433.84" cy="1122.77" rx="1.28" ry="1.29"/>
			<ellipse class="st12" cx="1431.92" cy="1114.34" rx="1.28" ry="1.29"/>
			<ellipse class="st12" cx="1428.82" cy="1105.9" rx="1.28" ry="1.29"/>
			<ellipse class="st12" cx="1416.19" cy="1092.85" rx="1.28" ry="1.29"/>
			<ellipse class="st12" cx="1423.64" cy="1098.53" rx="1.28" ry="1.29"/>
		</g>
		<path class="st12" d="M1452.91,1153.25"/>
		<path class="st12" d="M1453.8,1131.49c0,0-0.11,45.48-32.77,63.81"/>
		<path class="st12" d="M1410.63,1202.48c0,0-45.7,30.06-89.49-18.2"/>
		<path class="st12" d="M1453.63,1106.62c0,0-16.73-62.29-87.71-59.56"/>
		<path class="st12" d="M1345.24,1053.56c0,0-53.3,29.98-41.23,95.83"/>
		<path class="st12" d="M1402.06,1163.63"/>
		<path class="st12" d="M1388.35,1158.3c0,0,36.91,23.21,13.84,24.26"/>
		<path class="st12" d="M1409.07,1074.07c0,0-11.47-1.09-10.43,32.04"/>
		<path class="st12" d="M1438.72,1140.9c0,0-0.5,27.4-18.68,10.2"/>
		<path class="st12" d="M1332.05,1157.45c0,0-11.34,3,0.91,16.04"/>
		<line class="st12" x1="1358.8" y1="1149.36" x2="1344.76" y2="1160.56"/>
		<path class="st12" d="M1354.36,1072.21c1.15-0.29,32.15-14.22,23.6,17.98"/>
		<path class="st12" d="M1352.39,1122.65c0,0-32.79,20.48-33.27,11.13"/>
	</g>
	<path class="st4" d="M1490.79,1038.65c0,0,32.14,232.41-138.79,328.62"/>
	<path class="st2" d="M1479.72,1046.66c0,0,10.07,97.22-15.86,156.06"/>
	<path class="st2" d="M1457.53,1194.32c1.24-1.62,11.1-27.18,12.19-51.01"/>
	<path class="st2" d="M1472.05,1043.19c0.77,3.15,6.65,74.03,0.61,89.04"/>
	<path class="st2" d="M1319.72,1044.49c-19.26,2.09-118.54-3.85-118.54-3.85"/>
	<path class="st2" d="M1315.79,1052.23c0,0-33.37,3.15-56.78,0.39"/>
	<path class="st2" d="M1349.06,1229.22c0,0,33.46,40.89,14.89,84.18"/>
	<path class="st2" d="M1062.41,1071.46c0,0-45.17-22.29-53.49-35.53"/>
	<path class="st2" d="M1062.34,1060.53c0,0-30.75-9.92-33.62-17.13"/>
	<path class="st2" d="M1513.82,1038.49c0,0,50.63-19.96,34.19,50.95"/>
	<path class="st2" d="M1522.94,1043.45c0,0,26.94-2.05,18.41,33.94"/>
	<path class="st2" d="M1464.75,1332.71c0,0-67.33,131.33-107.31,47.29"/>
	<path class="st2" d="M1411.31,1389.08c0,0-25.13,27.6-38.74-3.52"/>
	<g>
		
			<ellipse transform="matrix(0.9998 -0.018 0.018 0.9998 -19.7768 21.5789)" class="st12" cx="1186.7" cy="1107.45" rx="67.24" ry="68.96"/>
		<g>
			<path class="st12" d="M1173.93,1096.87c0,0-34.81,9.27-14.64-15.1s15.81-0.14,18.59,6.83c2.79,6.97,6.12,5.99,12.33-13.75
				s-4.62-24.64-28.87-13.08s-29.03,45.02-26.17,52.67c2.86,7.65,20.92-1.34,30.04-7.49
				C1174.34,1100.79,1173.93,1096.87,1173.93,1096.87z"/>
			<ellipse class="st12" cx="1167.06" cy="1068.34" rx="1.06" ry="1.01"/>
			<ellipse class="st12" cx="1173.82" cy="1066.77" rx="1.17" ry="1.12"/>
			<ellipse class="st12" cx="1161.17" cy="1072.37" rx="1.06" ry="1.01"/>
			<ellipse class="st12" cx="1156.21" cy="1077.2" rx="1.06" ry="1.01"/>
			<ellipse class="st12" cx="1151.78" cy="1082.83" rx="1.06" ry="1.01"/>
			<ellipse class="st12" cx="1148.4" cy="1096.75" rx="1.06" ry="1.01"/>
			<ellipse class="st12" cx="1149.01" cy="1089.39" rx="1.06" ry="1.01"/>
		</g>
		<g>
			<path class="st12" d="M1182.57,1125.04c0,0,25.69,24.37-6.37,19.7c-32.06-4.67-7.99-13.09-3.07-18.88
				c4.91-5.79,2.37-8.08-18.56-3.43c-20.93,4.65-19.98,16.1,2.53,30.54c22.51,14.44,55.14,1.78,60.63-4.4
				c5.49-6.18-11.62-16.75-21.72-21.28S1182.57,1125.04,1182.57,1125.04z"/>
			<ellipse class="st12" cx="1160.2" cy="1144.95" rx="1.06" ry="1.01"/>
			<ellipse class="st12" cx="1155.42" cy="1140.11" rx="1.17" ry="1.12"/>
			<ellipse class="st12" cx="1166.77" cy="1147.86" rx="1.06" ry="1.01"/>
			<ellipse class="st12" cx="1173.61" cy="1149.58" rx="1.06" ry="1.01"/>
			<ellipse class="st12" cx="1180.9" cy="1150.47" rx="1.06" ry="1.01"/>
			<ellipse class="st12" cx="1195.17" cy="1146.36" rx="1.06" ry="1.01"/>
			<ellipse class="st12" cx="1188.21" cy="1149.52" rx="1.06" ry="1.01"/>
		</g>
		<g>
			<path class="st12" d="M1204.17,1099.67c0,0,10.59-33.14,21.14-3.71c10.55,29.43-8.38,12.86-16.01,11.36
				c-7.62-1.5-8.56,1.73,5.44,17.37c13.99,15.64,24.13,9.52,27.03-16.31c2.9-25.83-23.92-47.71-32.17-49.51
				c-8.26-1.8-10.08,17.64-9.59,28.33C1200.5,1097.89,1204.17,1099.67,1204.17,1099.67z"/>
			<ellipse class="st12" cx="1232.92" cy="1109.47" rx="1.06" ry="1.01"/>
			<ellipse class="st12" cx="1230.66" cy="1115.78" rx="1.17" ry="1.12"/>
			<ellipse class="st12" cx="1232.56" cy="1102.53" rx="1.06" ry="1.01"/>
			<ellipse class="st12" cx="1230.97" cy="1095.92" rx="1.06" ry="1.01"/>
			<ellipse class="st12" cx="1228.42" cy="1089.31" rx="1.06" ry="1.01"/>
			<ellipse class="st12" cx="1218.01" cy="1079.09" rx="1.06" ry="1.01"/>
			<ellipse class="st12" cx="1224.15" cy="1083.54" rx="1.06" ry="1.01"/>
		</g>
		<path class="st12" d="M1248.28,1126.42"/>
		<path class="st12" d="M1249.02,1109.36c0,0-0.09,35.64-27.02,50"/>
		<path class="st12" d="M1213.42,1165c0,0-37.68,23.56-73.79-14.26"/>
		<path class="st12" d="M1248.87,1089.88c0,0-13.8-48.81-72.31-46.68"/>
		<path class="st12" d="M1159.5,1048.29c0,0-43.95,23.5-34,75.1"/>
		<path class="st12" d="M1206.36,1134.56"/>
		<path class="st12" d="M1195.05,1130.38c0,0,30.43,18.19,11.41,19.01"/>
		<path class="st12" d="M1212.13,1064.37c0,0-9.46-0.85-8.6,25.11"/>
		<path class="st12" d="M1236.58,1116.74c0,0-0.41,21.47-15.4,8"/>
		<path class="st12" d="M1148.64,1129.71c0,0-9.35,2.35,0.75,12.57"/>
		<line class="st12" x1="1170.69" y1="1123.37" x2="1159.11" y2="1132.15"/>
		<path class="st12" d="M1167.02,1062.91c0.95-0.23,26.51-11.14,19.46,14.09"/>
		<path class="st12" d="M1165.4,1102.44c0,0-27.04,16.05-27.43,8.72"/>
	</g>
	<g>
		<path class="st12" d="M1234.58,1255.7c10.72,8.41,23.93,15.22,33.33,25.12c9.16,9.64,15.52,21.57,24.74,31.31
			c2.57,2.72,5.21,5.38,7.91,7.99c8.03,5.56,15.7,11.47,22.41,18.51c1.06,0.74,1.83,1.62,2.36,2.58c1.06,1.2,2.1,2.43,3.11,3.7
			c1.67-0.67,2.76-1.23,3.12-1.62c31.03-32.83,27.8-86.59-7.22-120.08c-35.02-33.49-88.56-34.03-119.6-1.2
			c-0.87,0.92-1.7,1.86-2.51,2.81C1211.73,1236.4,1222.82,1246.47,1234.58,1255.7z"/>
		<g>
			<path class="st12" d="M1300.55,1320.1c3.95,2.74,7.82,5.56,11.53,8.56c7.02-0.93,13.66-10.3,19.14-27.84
				c9.85-31.54-16.69-65.37-26.08-69.63c-9.39-4.26-16.39,19.56-18.44,33.02c-2.06,13.46,1.87,16.58,1.87,16.58
				s20.83-38.78,26.12,0.52c5.28,39.3-13.18,14.01-21.89,10.28c-8.69-3.71-10.61,0.06,2.08,22.82
				C1296.73,1316.34,1298.62,1318.24,1300.55,1320.1z"/>
			
				<ellipse transform="matrix(0.9575 -0.2883 0.2883 0.9575 -318.7389 435.8806)" class="st12" cx="1320.4" cy="1300.02" rx="1.28" ry="1.29"/>
			
				<ellipse transform="matrix(0.9575 -0.2883 0.2883 0.9575 -321.0303 434.9655)" class="st12" cx="1316.15" cy="1307.35" rx="1.42" ry="1.43"/>
			
				<ellipse transform="matrix(0.9575 -0.2883 0.2883 0.9575 -316.1629 435.8802)" class="st12" cx="1321.69" cy="1291.28" rx="1.28" ry="1.29"/>
			
				<ellipse transform="matrix(0.9575 -0.2883 0.2883 0.9575 -313.6839 435.4418)" class="st12" cx="1321.44" cy="1282.64" rx="1.28" ry="1.29"/>
			
				<ellipse transform="matrix(0.9575 -0.2883 0.2883 0.9575 -311.1844 434.6602)" class="st12" cx="1320.03" cy="1273.77" rx="1.28" ry="1.29"/>
			
				<ellipse transform="matrix(0.9575 -0.2883 0.2883 0.9575 -307.1937 431.1629)" class="st12" cx="1310.16" cy="1258.47" rx="1.28" ry="1.29"/>
			
				<ellipse transform="matrix(0.9575 -0.2883 0.2883 0.9575 -308.9637 433.2552)" class="st12" cx="1316.37" cy="1265.53" rx="1.28" ry="1.29"/>
		</g>
		<g>
			<path class="st12" d="M1231.8,1253.47c0.61-3.22,3.81-7.47,11.12-13.09c31.26-24.03,18.68,4.58,19.83,14.02
				c1.15,9.44,5.38,9.23,18.75-13.26c13.37-22.5,2.11-31.81-30.03-24.82c-14.88,3.23-26.27,13.51-34.12,24.65
				C1221.99,1245.33,1226.83,1249.48,1231.8,1253.47z"/>
			<path class="st12" d="M1252.06,1267.91c3.19-2.59,3.49-4.49,3.49-4.49s-5.55,0.12-11.3-0.8
				C1246.84,1264.39,1249.47,1266.13,1252.06,1267.91z"/>
			
				<ellipse transform="matrix(0.9575 -0.2883 0.2883 0.9575 -300.1661 414.2352)" class="st12" cx="1256.2" cy="1226.15" rx="1.28" ry="1.29"/>
			
				<ellipse transform="matrix(0.9575 -0.2883 0.2883 0.9575 -299.8343 416.6738)" class="st12" cx="1264.65" cy="1226.24" rx="1.42" ry="1.43"/>
			
				<ellipse transform="matrix(0.9575 -0.2883 0.2883 0.9575 -301.4359 412.0101)" class="st12" cx="1248.01" cy="1229.35" rx="1.28" ry="1.29"/>
			
				<ellipse transform="matrix(0.9575 -0.2883 0.2883 0.9575 -303.0396 410.0887)" class="st12" cx="1240.69" cy="1233.83" rx="1.28" ry="1.29"/>
			
				<ellipse transform="matrix(0.9575 -0.2883 0.2883 0.9575 -304.9524 408.3217)" class="st12" cx="1233.73" cy="1239.44" rx="1.28" ry="1.29"/>
			
				<ellipse transform="matrix(0.9575 -0.2883 0.2883 0.9575 -307.2709 407.1085)" class="st12" cx="1228.45" cy="1246.71" rx="1.28" ry="1.29"/>
		</g>
		<path class="st12" d="M1206.73,1227.86c14.99-18.16,38.62-25.52,61.49-24.9"/>
		<path class="st12" d="M1326.89,1339.22c2.98-2.71,5.8-5.58,8.48-8.59"/>
		<path class="st12" d="M1345.07,1311.14c0,0,15.53-59.41-39.99-96.37"/>
		<path class="st12" d="M1279.85,1229.49c0,0,5.73-10.3-12.11-10.48"/>
		<line class="st12" x1="1267.08" y1="1254.47" x2="1268.8" y2="1236.53"/>
		<path class="st12" d="M1325.39,1304.8c-0.59,1.03-12.13,33.15-29.25,4.61"/>
		<path class="st12" d="M1290.65,1268.37c0,0,8.1-37.96,15.13-31.81"/>
	</g>
	<path class="st13" d="M1389.36,1309.22c34.7-5.12,55.21-46.52,50.36-66.22c-4.85-19.69-4.04-25.49-4.38-28.37
		c0,0-42.56,8.85-52.11,39.15c-9.54,30.29-4.48,44.51-1.67,49.94C1384.36,1309.15,1389.36,1309.22,1389.36,1309.22z"/>
	<g>
		<path d="M1428.93,1224.3c-2.17,2.91-4.32,5.82-6.42,8.78c-2.12,2.94-4.21,5.9-6.25,8.89c-4.09,5.97-8.1,12.01-11.81,18.22
			c-3.77,6.18-7.26,12.52-10.23,19.11c-1.46,3.3-2.78,6.67-3.72,10.15c-0.95,3.46-1.57,7.09-1.04,10.7
			c-0.75-3.57-0.24-7.29,0.56-10.82c0.86-3.54,2.1-6.98,3.49-10.34c2.85-6.7,6.37-13.08,10.08-19.32c3.8-6.19,7.8-12.25,12.04-18.15
			C1419.88,1235.64,1424.27,1229.86,1428.93,1224.3z"/>
	</g>
	<g>
		<path d="M1431.17,1264.72c-2.75,1.51-5.57,2.86-8.42,4.17c-2.84,1.31-5.74,2.51-8.68,3.63c-2.94,1.08-5.92,2.12-9.01,2.79
			c-1.54,0.29-3.14,0.65-4.78,0.3c-0.76-0.2-1.52-0.4-2.27-0.65c-0.37-0.13-0.75-0.25-1.11-0.42c-0.18-0.08-0.36-0.17-0.52-0.3
			c-0.08-0.06-0.16-0.13-0.2-0.23c-0.03-0.12,0.08-0.2,0.17-0.22c-0.08,0.04-0.18,0.12-0.13,0.21c0.04,0.08,0.12,0.14,0.21,0.18
			c0.16,0.1,0.35,0.16,0.53,0.22c0.37,0.13,0.74,0.22,1.12,0.3c0.76,0.17,1.53,0.3,2.3,0.42c1.47,0.22,3.01-0.2,4.5-0.57
			c2.98-0.82,5.92-1.88,8.84-2.98c2.92-1.09,5.82-2.26,8.73-3.4L1431.17,1264.72z"/>
	</g>
	<g>
		<path d="M1436.3,1245.17c-2.63,1.7-5.32,3.29-8.02,4.85c-2.7,1.57-5.44,3.07-8.2,4.54c-2.77,1.44-5.55,2.88-8.43,4.13
			c-2.92,1.26-5.91,2.02-8.81,3.24c1.35-0.79,2.79-1.41,4.22-2.06c1.45-0.62,2.9-1.15,4.27-1.87c2.77-1.39,5.53-2.86,8.29-4.31
			c2.76-1.44,5.52-2.91,8.3-4.33l4.17-2.13C1433.49,1246.54,1434.88,1245.83,1436.3,1245.17z"/>
	</g>
	<g>
		<path d="M1392.83,1250.28c-0.53,1.55-1.05,3.09-1.5,4.65c-0.49,1.55-0.95,3.11-1.34,4.69c-0.8,3.14-1.58,6.3-2.07,9.5
			c-0.51,3.19-0.89,6.41-0.91,9.64c-0.05,0.81,0.04,1.61,0.06,2.42l0.05,1.21l0.16,1.2l0.14,1.21c0.04,0.41,0.1,0.81,0.2,1.2
			c0.19,0.79,0.37,1.58,0.54,2.38c-1.23-3.04-1.76-6.33-1.92-9.61c-0.16-3.29,0.2-6.58,0.7-9.82c0.53-3.24,1.34-6.43,2.33-9.55
			C1390.25,1256.29,1391.38,1253.21,1392.83,1250.28z"/>
	</g>
	<g>
		<path d="M1410.81,1230.52c0.2,2.84,0.12,5.66-0.02,8.47c-0.08,1.41-0.18,2.81-0.31,4.21c-0.12,1.4-0.31,2.8-0.46,4.21
			c-0.24-1.41-0.31-2.83-0.32-4.24c-0.02-1.42,0.03-2.83,0.1-4.24C1409.97,1236.12,1410.23,1233.31,1410.81,1230.52z"/>
	</g>
	<path class="st13" d="M1242.2,1170.3c0,0,9.96,33.77,36.19,7.45l12.26-14.12c0,0-21.5-11.11-31.8-10.79
		c-10.3,0.32-9.63,2.92-9.63,2.92S1240.54,1166.08,1242.2,1170.3z"/>
	<g>
		<path d="M1273.59,1167.28c-1.13,0.53-2.39,0.74-3.61,0.95c-1.23,0.2-2.47,0.35-3.71,0.45c-2.48,0.2-4.97,0.36-7.46,0.41
			c-2.49,0.05-4.98,0.07-7.46,0.06c-2.49,0-4.97-0.1-7.46-0.18l0.14-0.02c-1.44,0.41-2.88,0.92-4.29,1.47
			c-1.42,0.54-2.8,1.15-4.14,1.86c-1.34,0.71-2.62,1.51-3.81,2.45c-1.17,0.95-2.23,2.08-2.9,3.46c0.52-1.45,1.53-2.69,2.65-3.74
			c1.13-1.06,2.42-1.94,3.75-2.72c2.67-1.56,5.52-2.76,8.49-3.65l0.06-0.02l0.08,0l7.44,0.11c2.48,0.04,4.96,0.06,7.44,0.05
			c2.48-0.02,4.96,0,7.44-0.1c1.24-0.06,2.48-0.1,3.71-0.2C1271.17,1167.8,1272.41,1167.68,1273.59,1167.28z"/>
	</g>
	<g>
		<path d="M1254.64,1160.89c-0.64,1.53-1.53,2.87-2.48,4.17c-0.97,1.28-2,2.52-3.28,3.57c0.64-1.53,1.53-2.87,2.48-4.17
			C1252.33,1163.18,1253.36,1161.94,1254.64,1160.89z"/>
	</g>
	<g>
		<path d="M1261.82,1161.53c-0.44,1.4-1.14,2.64-1.9,3.84c-0.79,1.18-1.63,2.32-2.74,3.3c0.44-1.41,1.14-2.64,1.9-3.84
			C1259.86,1163.65,1260.71,1162.51,1261.82,1161.53z"/>
	</g>
	<g>
		<path d="M1253.12,1169.09c1.14,1.79,2.33,3.44,3.74,4.92c0.69,0.75,1.43,1.45,2.21,2.11c0.77,0.68,1.62,1.26,2.47,1.91
			c-1.03-0.28-2.03-0.69-2.93-1.28c-0.92-0.56-1.74-1.27-2.48-2.06c-0.73-0.79-1.38-1.66-1.89-2.61
			C1253.72,1171.15,1253.3,1170.14,1253.12,1169.09z"/>
	</g>
	<path class="st2" d="M1290.65,1077.2c-5.09,2.08-16.41,39.78-9.92,65.08"/>
	<path class="st13" d="M1111.57,1094.4c9.67-22.8-7.94-50.22-21.7-54.44c-13.76-4.23-16.98-6.82-18.86-7.66c0,0-10.3,28.9,4.6,45.66
		c14.9,16.76,25.41,18.87,29.74,19.15S1111.57,1094.4,1111.57,1094.4z"/>
	<g>
		<path d="M1074.52,1039.67c1,2.36,1.99,4.71,3.04,7.04c1.02,2.34,2.06,4.67,3.14,6.99c2.15,4.63,4.34,9.24,6.76,13.73
			c2.36,4.52,4.93,8.93,7.81,13.12c1.45,2.08,3.01,4.1,4.76,5.94c1.73,1.84,3.69,3.53,6.05,4.55c-2.45-0.81-4.53-2.45-6.4-4.2
			c-1.85-1.79-3.49-3.79-5.04-5.84c-3.05-4.14-5.63-8.59-8.07-13.1c-2.36-4.55-4.57-9.18-6.58-13.89
			C1078,1049.3,1076.13,1044.53,1074.52,1039.67z"/>
	</g>
	<g>
		<path d="M1099.92,1053.01c-0.04,2.22-0.23,4.42-0.46,6.62c-0.22,2.2-0.56,4.39-0.96,6.57c-0.43,2.17-0.89,4.35-1.66,6.46
			c-0.21,0.52-0.39,1.05-0.67,1.56c-0.22,0.51-0.58,1.02-0.96,1.44c-0.41,0.38-0.82,0.75-1.25,1.11c-0.22,0.17-0.44,0.35-0.67,0.5
			c-0.12,0.07-0.24,0.15-0.38,0.2c-0.07,0.03-0.14,0.05-0.22,0.03c-0.09-0.03-0.09-0.13-0.07-0.19c-0.01,0.07,0.02,0.15,0.08,0.15
			c0.06,0,0.12-0.03,0.18-0.06c0.11-0.07,0.22-0.16,0.32-0.25c0.2-0.18,0.39-0.38,0.58-0.57c0.37-0.4,0.73-0.82,1.07-1.25
			c0.63-0.82,0.95-1.87,1.26-2.91c0.58-2.1,1.01-4.25,1.41-6.41c0.42-2.16,0.78-4.33,1.19-6.49l0.58-3.26
			C1099.5,1055.18,1099.69,1054.09,1099.92,1053.01z"/>
	</g>
	<g>
		<path d="M1089.92,1042.81c0.12,2.21,0.13,4.41,0.11,6.61c-0.01,2.2-0.11,4.4-0.23,6.6c-0.15,2.2-0.3,4.4-0.63,6.59
			c-0.34,2.23-1,4.29-1.39,6.48c-0.02-1.11,0.12-2.21,0.23-3.31c0.14-1.11,0.34-2.17,0.39-3.26l0.4-6.56
			c0.14-2.19,0.27-4.39,0.46-6.58l0.28-3.29C1089.68,1045,1089.77,1043.9,1089.92,1042.81z"/>
	</g>
	<g>
		<path d="M1077.01,1070.9c0.77,0.86,1.53,1.73,2.33,2.55c0.78,0.85,1.56,1.68,2.38,2.49c1.63,1.61,3.27,3.22,5.03,4.67
			c1.75,1.47,3.56,2.86,5.49,4.07c0.47,0.32,0.98,0.57,1.48,0.86l0.75,0.42l0.78,0.35c0.52,0.22,1.02,0.53,1.57,0.69
			c0.54,0.18,1.08,0.37,1.63,0.58c-2.3-0.3-4.52-1.15-6.59-2.23c-2.08-1.08-3.95-2.49-5.75-3.97c-1.78-1.5-3.42-3.16-4.94-4.91
			C1079.66,1074.7,1078.22,1072.87,1077.01,1070.9z"/>
	</g>
	<g>
		<path d="M1071.63,1052.87c1.87,0.81,3.56,1.86,5.22,2.96c1.65,1.12,3.23,2.32,4.76,3.65c-0.98-0.3-1.88-0.77-2.76-1.25
			c-0.88-0.48-1.72-1.02-2.56-1.57C1074.64,1055.53,1073.04,1054.33,1071.63,1052.87z"/>
	</g>
	<path class="st2" d="M997.43,516.4"/>
	<path class="st2" d="M998.45,691.09"/>
	<path class="st2" d="M987.7,484.29"/>
	<path class="st2" d="M1223.19,484.29"/>
	<path class="st14" d="M1081.94,882.58c-36.74-35.42-39.22-92.78-5.53-128.14s90.78-35.3,127.52,0.12"/>
	<ellipse class="st15" cx="1080.91" cy="801.4" rx="12.51" ry="12.58"/>
	<ellipse class="st15" cx="1159.76" cy="759.39" rx="10.68" ry="10.74"/>
	<ellipse class="st15" cx="1118.14" cy="813.98" rx="12.51" ry="12.58"/>
	<ellipse class="st15" cx="1108.23" cy="761.71" rx="14.81" ry="14.89"/>
	<ellipse class="st15" cx="1091.59" cy="846.04" rx="10.68" ry="10.74"/>
	<ellipse class="st15" cx="1148.25" cy="784.44" rx="10.68" ry="10.74"/>
	<path class="st2" d="M1114.2,740.07c0,0,52.02-11.35,78.25,15.13"/>
	<path class="st2" d="M1125.03,746.82c0,0,14.63-7.13,24.06,0"/>
	<path class="st2" d="M1060.11,802.96c0,0-4.93,43.38,22.61,72.52"/>
	<path class="st2" d="M1068.41,818.88c0,0-6.07,17.06,7.97,37.9"/>
	<path class="st2" d="M994.04,508.71c0,0,96.73-9.46,155.04,17.02"/>
	<path class="st2" d="M1140.69,532.04c-1.6-1.26-26.95-11.35-50.63-12.61"/>
	<path class="st2" d="M990.54,516.4c3.13-0.76,73.64-6.18,88.53,0"/>
	<path class="st2" d="M990.79,669.62c1.94,19.39-4.64,119.2-4.64,119.2"/>
	<path class="st2" d="M998.45,673.63c0,0,2.9,33.58,0,57.11"/>
	<path class="st2" d="M1226.46,713.66c-9.97,13.17-23.8,29.98-23.8,29.98"/>
	<path class="st2" d="M1039.79,802.73c0,0,6.06-52.6,49.95-69.19"/>
	<path class="st2" d="M1015.83,928.6c0,0-22.47,45.28-35.69,53.55"/>
	<path class="st2" d="M1004.96,928.6c0,0-10.08,30.86-17.27,33.7"/>
	<path class="st2" d="M986.15,474.36c0,0-19.5-51.06,50.89-34.04"/>
	<path class="st2" d="M991.14,465.22c0,0-1.85-27.11,33.87-18.28"/>
	<path class="st2" d="M1278.33,525.73c0,0,130.11,68.62,46.28,108.26"/>
	<path class="st2" d="M1334.01,579.86c0,0,27.26,25.46-3.76,38.94"/>
	<path class="st14" d="M1021.94,561.18c35.06-37.1,92.08-39.83,127.37-6.1c35.29,33.73,35.48,91.15,0.42,128.26"/>
	<ellipse class="st15" cx="1102.65" cy="559.8" rx="12.51" ry="12.58"/>
	<ellipse class="st15" cx="1142.79" cy="638.93" rx="10.68" ry="10.74"/>
	<ellipse class="st15" cx="1090.3" cy="597.3" rx="12.51" ry="12.58"/>
	<ellipse class="st15" cx="1142.23" cy="587.11" rx="14.81" ry="14.89"/>
	<ellipse class="st15" cx="1058.31" cy="570.73" rx="10.68" ry="10.74"/>
	<ellipse class="st15" cx="1117.84" cy="627.45" rx="10.68" ry="10.74"/>
	<path class="st2" d="M1161.8,593.02c0,0,11.5,52.28-14.71,78.77"/>
	<path class="st2" d="M1155.15,603.94c0,0,7.15,14.69,0.1,24.2"/>
	<path class="st2" d="M1101.02,538.88c0,0-43.15-4.77-72.01,23.04"/>
	<path class="st2" d="M1085.22,547.29c0,0-16.99-6.04-37.65,8.17"/>
	<path class="st14" d="M1149.6,683.19c-35.06,37.1-92.08,39.83-127.37,6.1c-35.29-33.73-35.48-91.15-0.42-128.26"/>
	<ellipse class="st15" cx="1068.9" cy="684.57" rx="12.51" ry="12.58"/>
	<ellipse class="st15" cx="1028.76" cy="605.44" rx="10.68" ry="10.74"/>
	<ellipse class="st15" cx="1081.25" cy="647.07" rx="12.51" ry="12.58"/>
	<ellipse class="st15" cx="1029.32" cy="657.26" rx="14.81" ry="14.89"/>
	<ellipse class="st15" cx="1113.23" cy="673.64" rx="10.68" ry="10.74"/>
	<ellipse class="st15" cx="1053.71" cy="616.92" rx="10.68" ry="10.74"/>
	<path class="st2" d="M1009.74,651.35c0,0-11.5-52.28,14.71-78.77"/>
	<path class="st2" d="M1016.4,640.43c0,0-7.15-14.69-0.1-24.2"/>
	<path class="st2" d="M1070.53,705.49c0,0,43.15,4.77,72.01-23.04"/>
	<path class="st2" d="M1086.32,697.08c0,0,16.99,6.04,37.65-8.17"/>
	<path class="st14" d="M1210.99,663.76c17.81,15.3,43.66,20.76,68.12,12.09l30.18-28.77c0,0-17.78-40.9-46.94-64.23
		c-29.16-23.34-27.02-31.92-27.02-31.92c-35.85,12.71-55.12,50.98-43.03,85.48C1196.14,647.36,1202.69,656.63,1210.99,663.76"/>
	<ellipse class="st15" cx="1224.94" cy="649.19" rx="9.34" ry="9.4"/>
	<ellipse class="st15" cx="1224.96" cy="582.84" rx="7.97" ry="8.02"/>
	<ellipse class="st15" cx="1243.49" cy="624.91" rx="9.34" ry="9.4"/>
	<ellipse class="st15" cx="1207.83" cy="617.51" rx="11.06" ry="11.13"/>
	<ellipse class="st15" cx="1258.13" cy="657.07" rx="7.97" ry="8.02"/>
	<ellipse class="st15" cx="1258.13" cy="602" rx="7.97" ry="8.02"/>
	<path class="st2" d="M1196.8,606.89c0,0,10-38.71,36.39-47.38"/>
	<path class="st2" d="M1204.92,601.89c0,0,0.2-12.21,8.1-16.13"/>
	<path class="st2" d="M1218.97,663.67c0,0,27.1,17.92,55.69,9.26"/>
	<path class="st2" d="M1232.32,663.47c0,0,9.27,9.82,27.81,7.42"/>
	<ellipse class="st15" cx="1281.92" cy="630.57" rx="9.34" ry="9.4"/>
	<path class="st2" d="M1184.93,649.86c0,0,6.52,45.72,52.65,43.76"/>
	<path class="st2" d="M1186.93,673.64c0,0,6.68,26.06,38.01,24.7"/>
	<path class="st14" d="M976.49,794.84c38.18,4.57,67.61,38.32,65.72,75.37s-34.36,63.38-72.54,58.81"/>
	
		<ellipse transform="matrix(0.8031 -0.5959 0.5959 0.8031 -302.5473 772.032)" class="st15" cx="1016.72" cy="843.74" rx="9.16" ry="9.81"/>
	
		<ellipse transform="matrix(0.8031 -0.5959 0.5959 0.8031 -344.2538 769.7515)" class="st15" cx="992.42" cy="905.69" rx="7.82" ry="8.38"/>
	
		<ellipse transform="matrix(0.8031 -0.5959 0.5959 0.8031 -313.6111 757.6391)" class="st15" cx="989.41" cy="853.28" rx="9.16" ry="9.81"/>
	
		<ellipse transform="matrix(0.8031 -0.5959 0.5959 0.8031 -323.6885 781.5692)" class="st15" cx="1020.58" cy="880.49" rx="10.84" ry="11.62"/>
	
		<ellipse transform="matrix(0.8031 -0.5959 0.5959 0.8031 -294.7963 751.0496)" class="st15" cx="988.85" cy="821.52" rx="7.82" ry="8.38"/>
	
		<ellipse transform="matrix(0.8031 -0.5959 0.5959 0.8031 -333.1293 762.3162)" class="st15" cx="986.73" cy="885.14" rx="7.82" ry="8.38"/>
	<path class="st2" d="M1027.75,896.4c0,0-24.03,30.92-51.87,26.93"/>
	<path class="st2" d="M1018.3,897.3c0,0-4.84,11.09-13.67,11.11"/>
	<path class="st2" d="M1027.79,833.18c0,0-18.39-28.66-48.27-33.66"/>
	<path class="st2" d="M1015.3,827.33c0,0-4.88-13.18-23.04-19.37"/>
	<path class="st2" d="M912.33,1593.18c0,0,37.74,1.23,24.98-30.36"/>
	<path class="st6" d="M769.5,1421.9"/>
	<g>
		<path class="st0" d="M953.39,1025.96c0,0-14.31,500.26-7.89,508.66c6.42,8.41,17.07,23.84,17.07,23.84s8.24,56.21-38.12,57.07
			s-170.42-30.46-170.42-30.46l-46.3-18.42c0,0-111.49-62.41-144.38-94.8c-32.9-32.4,12.24-67.37,12.24-67.37s18.45-3.85,28.95-5.53
			C615.04,1397.28,953.39,1025.96,953.39,1025.96"/>
		<path class="st1" d="M603.14,1414.36c0,0-50.95,10.63-32.7,51.78c0,0,98.5,84.58,190.78,115.58
			c92.29,31.01,150.95,29.72,176.61,11.14s-6.23-47-30.94-39.83C882.17,1560.2,737.27,1581.92,603.14,1414.36z"/>
		<path class="st2" d="M703.01,1314.8c9.97-13.17,23.8-29.98,23.8-29.98"/>
		<path class="st4" d="M603.26,1405.03c0,0,144.71,185.9,335.47,130.15"/>
		<g>
			<path class="st16" d="M857.37,1451.42c0,0-15.44-27.82-33,11.69c-17.56,39.51,15.61,58.22,29.73,64.03
				c14.12,5.82,39.4,18.33,65.24-2.56s10.86-72.86-15.09-61.64c0,0,3.76-23.89,6.5-28.41c2.74-4.52-5.55-9.34-6.81-9.62
				c-1.26-0.28-17.27-4.52-18.26-0.06s-3.38,8.03-3.38,8.03c0.45-0.38,7.2-15.53-6.84-16.37c0,0-8.34-5.04-9.12,4.1
				c-0.42,4.88-13.28,55.41-16.09,56.88c0,0-8.34-9.08-9.23-15.62c-0.88-6.54,4.71-9.04,4.71-9.04"/>
			<path class="st16" d="M903.44,1429.44c0,0-13.28,48.05-1.25,33.89"/>
			<path class="st16" d="M896.55,1465.58c0,0-16.07,31.72-0.63,19.99c15.44-11.73,6.26-14.93,6.26-14.93"/>
			<path class="st16" d="M888.7,1472.1c0,0-8.63,17.77-1.48,18.57"/>
			<path class="st16" d="M880.84,1478.61c0,0-6.3,16.9,1.34,16.23"/>
			<line class="st16" x1="872.69" y1="1420.94" x2="859.5" y2="1476.82"/>
			<line class="st16" x1="858.49" y1="1466.68" x2="855.27" y2="1480.33"/>
			<path class="st16" d="M852.72,1484.21c0,0-3.17,1.92-6.01-2.27"/>
			<path class="st16" d="M843.32,1450.94c-1.45,0.85-8.91,7.03-6.28,13"/>
			<path class="st16" d="M827.42,1467.95c0,0-7.5,12.64-0.55,27.41"/>
			<path class="st16" d="M899.2,1432.95c-0.78,0.29-7.19,29.68-7.19,29.68"/>
			<line class="st16" x1="891.98" y1="1437.16" x2="889.21" y2="1448.31"/>
			<path class="st16" d="M884.82,1443.09c0.18,0.21-5.66,21.33-5.66,21.33"/>
			<line class="st16" x1="886.57" y1="1456.16" x2="881.92" y2="1474.88"/>
			<path class="st16" d="M876.3,1425.73c0.09,2.05-5.56,23.72-5.56,23.72"/>
			<line class="st16" x1="879.41" y1="1424.87" x2="875.24" y2="1445.72"/>
			<line class="st16" x1="888.94" y1="1427.65" x2="888.04" y2="1435.12"/>
			<path class="st16" d="M872.22,1457.79c-3.59,7.93-4.35,13.87-4.35,13.87"/>
			<path class="st16" d="M910.43,1461.4"/>
			<path class="st16" d="M907.44,1461.86"/>
			<path class="st16" d="M904.25,1462.94c0,0,43.21,32.18-22.47,72.87"/>
			<path class="st16" d="M922.95,1514.87"/>
			<path class="st16" d="M905.59,1463.39c2.33-0.15,15.69,4.35,20.1,20.17"/>
			<path class="st16" d="M909.45,1462.21c0,0,13.17,2.01,18.05,19.85"/>
			<path class="st16" d="M907.6,1463.74c0,0,10.7,9.13,12.12,14.41"/>
			<path class="st16" d="M889.87,1533.07c0,0,24.64,0.02,37.38-25.4"/>
		</g>
		<path class="st2" d="M616.9,1402.67c0,0,62.94,75.33,123.76,97.86"/>
		<path class="st2" d="M739.1,1490.09c-2.05-0.24-27.48-11.04-45.43-26.94"/>
		<path class="st2" d="M619.84,1394.72c1.72,2.76,48.64,56.63,63.76,62.79"/>
		<path class="st2" d="M728.97,1285.9c15.18-12.41,81.42-88.08,81.42-88.08"/>
		<path class="st2" d="M737.34,1288.49c0,0,25.97-21.83,40.61-40.62"/>
		<path class="st2" d="M930.02,1421.72c2.19-16.44,4.18-38.21,4.18-38.21"/>
		<path class="st2" d="M931.16,1119.44c0,0,16.01-48.14,12.37-63.41"/>
		<path class="st2" d="M923.33,1111.73c0,0,14.69-29.1,11.53-36.21"/>
		<path class="st2" d="M586.78,1421.51c0,0-50.35,22.49,12.44,60.31"/>
		<path class="st2" d="M583.88,1431.56c0,0-20.61,17.97,11.39,37.03"/>
		<path class="st2" d="M833.74,1592.19c0,0,142.49,43.46,110.31-44.18"/>
		<path class="st17" d="M759.7,1497.57c0,0,40.5-22.47,57.52-44.99c0,0-49.62-38.12-48.44-52.43c1.17-14.31-70.59,32.43-67.96,36.82
			c2.63,4.39,52.14,58.03,52.14,58.03L759.7,1497.57z"/>
		<path class="st18" d="M806.4,1454.87c0,0-42.22-33.5-44.12-52.38"/>
		<path class="st18" d="M799.35,1457.25c0,0-24.7-18.49-26.47-24.24"/>
		<g>
			<path class="st16" d="M845.71,1242.01c0,0-29.49-11.11-17.32,27.85c12.17,38.96,49.13,33.05,63.5,28.98s41.41-9.84,47.43-40.16
				c6.03-30.32-38.63-59.22-50.94-35.84c0,0-12.51-19.53-13.36-24.42s-10.17-3.52-11.3-2.98c-1.13,0.54-15.89,6.86-13.77,10.68
				c2.12,3.82,2.62,7.81,2.62,7.81c0.1-0.54-4.55-15.49-15.66-7.85c0,0-9.51,1.24-4.22,8.33c2.82,3.78,25.6,47.98,24.43,50.69
				c0,0-12.11-1.68-16.97-5.91c-4.86-4.22-2.27-9.32-2.27-9.32"/>
			<path class="st16" d="M866.24,1199.03c0,0,20.87,42.65,20.83,25.31"/>
			<path class="st16" d="M884.28,1229.28c0,0,8.29,32.44,12.37,14.87c4.08-17.57-4.87-14.5-4.87-14.5"/>
			<path class="st16" d="M882.55,1238.62c0,0,4.92,17.96,10.82,14.33"/>
			<path class="st16" d="M880.82,1247.95c0,0,6.12,15.96,11.44,10.99"/>
			<line class="st16" x1="837.65" y1="1210.91" x2="863.63" y2="1259.19"/>
			<line class="st16" x1="856.36" y1="1252.42" x2="862.7" y2="1264.21"/>
			<path class="st16" d="M863.27,1268.53c0,0-1.15,3.26-5.98,1.88"/>
			<path class="st16" d="M834.83,1249.92c-0.55,1.47-2.19,10.33,3.62,13.11"/>
			<path class="st16" d="M833.8,1271.59c0,0,2.48,13.57,17.2,20.2"/>
			<path class="st16" d="M865.31,1204.05c-0.4,0.67,13.65,25.74,13.65,25.74"/>
			<line class="st16" x1="862.59" y1="1211.35" x2="867.66" y2="1221.06"/>
			<path class="st16" d="M861.01,1219.86c0.27,0.05,9.44,18.79,9.44,18.79"/>
			<line class="st16" x1="870.72" y1="1228.3" x2="879.25" y2="1244.61"/>
			<path class="st16" d="M843.45,1212.27c1.38,1.43,11.06,20.46,11.06,20.46"/>
			<line class="st16" x1="845.23" y1="1209.81" x2="855.49" y2="1227.39"/>
			<line class="st16" x1="854.19" y1="1206.24" x2="858.31" y2="1212.19"/>
			<path class="st16" d="M860.97,1237.91c2.39,7.86,5.64,12.61,5.64,12.61"/>
			<path class="st16" d="M892.03,1218.1"/>
			<path class="st16" d="M890.08,1220.18"/>
			<path class="st16" d="M888.37,1222.84c0,0,53.17-2.04,29.9,66.03"/>
			<path class="st16" d="M935.79,1249.52"/>
			<path class="st16" d="M889.68,1222.38c1.65-1.48,14.6-6.06,28.07,2.83"/>
			<path class="st16" d="M891.82,1219.26c0,0,11.2-6.28,26.33,3.79"/>
			<path class="st16" d="M891.41,1221.46c0,0,13.92,0.34,18.38,3.34"/>
			<path class="st16" d="M922.6,1282.14c0,0,18.55-14.45,11.8-40.36"/>
		</g>
		<g>
			<path class="st16" d="M730.38,1372.77c0,0-14.24,24.21,23.83,19.5c38.06-4.72,37.34-38.12,35.39-51.36
				c-1.95-13.25-3.83-37.9-31.43-47.85c-27.6-9.95-60.47,24.87-40.18,39.28c0,0-19.92,8-24.6,8c-4.69,0-4.62,8.4-4.26,9.48
				c0.36,1.08,4.35,15.02,8.21,13.74c3.85-1.28,7.65-1.1,7.65-1.1c-0.49-0.17-15.1,1.63-9.39,12.56c0,0-0.07,8.55,7.25,4.99
				c3.91-1.9,48.26-15.14,50.64-13.69c0,0-3.15,10.38-7.74,14.01c-4.59,3.63-9.02,0.57-9.02,0.57"/>
			<path class="st16" d="M692.8,1348.13c0,0,42.64-11.8,26.41-14.42"/>
			<path class="st16" d="M723.47,1336.91c0,0,31.45-2.31,15.53-8.59c-15.92-6.28-14.21,2.06-14.21,2.06"/>
			<path class="st16" d="M731.99,1339.87c0,0,17.45-1.57,14.82-7.31"/>
			<path class="st16" d="M740.51,1342.82c0,0,15.74-2.93,11.77-8.37"/>
			<line class="st16" x1="700.21" y1="1375.08" x2="748.79" y2="1359.66"/>
			<line class="st16" x1="741.51" y1="1365.01" x2="753.38" y2="1361.25"/>
			<path class="st16" d="M757.49,1361.4c0,0,2.9,1.51,0.99,5.55"/>
			<path class="st16" d="M736.37,1383.55c1.3,0.71,9.39,3.51,12.75-1.17"/>
			<path class="st16" d="M756.53,1387.78c0,0,13.03-0.1,21.15-12.01"/>
			<path class="st16" d="M697.39,1349.72c0.58,0.45,25.88-8.05,25.88-8.05"/>
			<line class="st16" x1="703.87" y1="1353.23" x2="713.62" y2="1350.26"/>
			<path class="st16" d="M711.63,1355.92c0.08-0.23,18.82-5.42,18.82-5.42"/>
			<line class="st16" x1="720.79" y1="1348.69" x2="737.17" y2="1343.69"/>
			<path class="st16" d="M702.24,1370.2c1.52-1,20.6-6.58,20.6-6.58"/>
			<line class="st16" x1="700.17" y1="1368.25" x2="717.96" y2="1361.93"/>
			<line class="st16" x1="697.99" y1="1359.83" x2="704.09" y2="1357.12"/>
			<path class="st16" d="M728.53,1358.73c7.67-0.9,12.54-3.02,12.54-3.02"/>
			<path class="st16" d="M714.02,1328.39"/>
			<path class="st16" d="M715.71,1330.42"/>
			<path class="st16" d="M717.98,1332.33c0,0,5-47.05,65.72-16.15"/>
			<path class="st16" d="M749.12,1294.75"/>
			<path class="st16" d="M717.72,1331.12c-1.17-1.68-3.77-13.76,6.3-24.24"/>
			<path class="st16" d="M715.08,1328.75c0,0-4.42-10.81,6.97-22.56"/>
			<path class="st16" d="M717.08,1329.45c0,0,2.13-12.18,5.51-15.64"/>
			<path class="st16" d="M777.96,1311.34c0,0-11.12-18.52-36.26-16.57"/>
		</g>
		<path class="st17" d="M907.1,1389.33c0,0,21.81-41.06,21.95-66.21c0,0-71.98,10.68-80.77,1.24c-8.79-9.43-42.65,67.5-37.2,68.36
			s88.03-0.37,88.03-0.37L907.1,1389.33z"/>
		<path class="st18" d="M920.67,1331.85c0,0-61.99,8.44-76.75-1.66"/>
		<path class="st18" d="M915.82,1338.07c0,0-35.5,5.61-41.1,3.34"/>
		<path class="st17" d="M931.73,1144c0.72,2.39-4.22,2.84-6.26,4.52c-19.88,16.29-25.02,40.95-26.57,54.7
			c0,0-59.14-32.56-63.4-38.21c-4.26-5.65,42.94-50.93,42.94-50.93S927.58,1130.2,931.73,1144z"/>
		<path class="st2" d="M896.48,1179.59c0,0,7.2-24.87,23.9-34.27"/>
		<path class="st2" d="M914.57,1139.65c0,0-25.1-17.37-32.66-19.48"/>
		<path class="st2" d="M831.28,1304.15c0,0-52.71-40.1-5.57-77.84"/>
		<path class="st2" d="M817.88,1307.02c0,0-15.02-15.88-16.8-28.94"/>
	</g>
	<g>
		<path d="M510.32,1129.95c-0.63,14.89,0.3,29.82,2.23,44.57c1.98,14.75,5.13,29.37,9.81,43.49c2.35,7.06,5.08,13.98,8.25,20.71
			c3.15,6.73,6.71,13.27,10.81,19.46c4.01,6.25,8.55,12.17,13.57,17.64c2.51,2.74,5.16,5.36,7.91,7.86c2.74,2.52,5.6,4.91,8.57,7.15
			l-0.06,0.08c-12.23-8.57-22.53-19.77-30.83-32.18c-4.13-6.24-7.71-12.82-10.87-19.59c-3.13-6.79-5.82-13.77-8.11-20.88
			c-4.6-14.21-7.66-28.88-9.55-43.68c-1.8-14.8-2.6-29.75-1.84-44.65L510.32,1129.95z"/>
	</g>
	<g>
		<path d="M531.81,1258.5c1.56-0.52,3.18-0.86,4.85-0.96c0.83-0.04,1.69-0.13,2.53,0.12c0.82,0.23,1.65,0.63,2.2,1.31l-0.05,0.08
			c-0.83-0.19-1.57-0.32-2.34-0.41c-0.76-0.09-1.53-0.25-2.33-0.3c-0.79-0.05-1.6-0.03-2.4,0.02c-0.81,0.04-1.62,0.11-2.42,0.24
			L531.81,1258.5z"/>
	</g>
	<g>
		<path d="M532.72,1206.41c-1.01,1.62-1.95,3.29-2.82,4.99c-0.89,1.69-1.71,3.41-2.43,5.16c-0.71,1.76-1.27,3.57-1.75,5.37
			c-0.47,1.8-0.82,3.65-0.4,5.52l-0.09,0.04c-0.49-0.85-0.69-1.86-0.74-2.84c-0.06-0.99,0.07-1.98,0.25-2.94
			c0.38-1.93,1.17-3.72,1.99-5.47c1.65-3.49,3.66-6.78,5.9-9.89L532.72,1206.41z"/>
	</g>
	<g>
		<path d="M503.04,1203.54c1.84,0.76,3.69,1.53,5.49,2.4c1.8,0.89,3.55,1.86,5.25,2.93c1.7,1.07,3.39,2.21,4.81,3.67
			c1.41,1.45,2.68,3.11,3.41,5l-0.09,0.05c-1.2-1.61-2.55-3.02-4.01-4.33c-1.45-1.31-2.95-2.59-4.57-3.73
			c-3.24-2.28-6.76-4.17-10.35-5.91L503.04,1203.54z"/>
	</g>
	<g>
		<path d="M493.49,1169.74c1.92,0.15,3.8,0.55,5.67,1.02c1.86,0.49,3.7,1.08,5.48,1.84c1.78,0.75,3.57,1.57,5.12,2.76
			c1.54,1.2,2.93,2.62,3.89,4.31l-0.08,0.06c-1.39-1.34-2.83-2.52-4.39-3.56c-1.56-1.04-3.17-2.01-4.87-2.85
			c-1.7-0.83-3.48-1.51-5.29-2.09c-1.81-0.58-3.66-1.11-5.53-1.4L493.49,1169.74z"/>
	</g>
	<g>
		<path d="M520.13,1168.54c-0.98,2.39-1.98,4.76-3,7.13c-0.5,1.19-0.96,2.4-1.57,3.53c-0.62,1.13-1.27,2.25-2.06,3.3l-0.09-0.04
			c0.31-1.28,0.76-2.49,1.25-3.68c0.49-1.19,1.15-2.31,1.75-3.45c1.19-2.29,2.4-4.56,3.63-6.83L520.13,1168.54z"/>
	</g>
	<g>
		<path d="M510.7,1142.3c1.01-1.04,1.84-2.29,2.76-3.44c0.92-1.16,1.86-2.3,2.85-3.41c0.98-1.11,2-2.23,3.2-3.13
			c1.2-0.89,2.54-1.7,4.02-2.01l0.04,0.09c-1.25,0.81-2.35,1.73-3.43,2.7c-1.07,0.97-2.21,1.89-3.26,2.91
			c-1.05,1.02-2.06,2.09-3.05,3.18c-1.03,1.06-1.95,2.21-3.09,3.19L510.7,1142.3z"/>
	</g>
	<path class="st2" d="M490.8,1091.05c0,0-2.37,35.72,9.9,46.36"/>
	<path class="st2" d="M487.11,1198.02c0,0,10.35,15.46,19.76,14.31"/>
	<path class="st2" d="M533.49,1203.19c0,0,12.24-8.58-0.65,23.69"/>
	<path class="st2" d="M480.78,1166.38c0,0-22.2,11.05,8.4,12.27"/>
	<path class="st2" d="M520.02,1075.93c0,0,17.37-34.68,3.69,14.24"/>
	<path class="st2" d="M496.34,1119.49c0.5,1.63,2.29,13.21,7.03,12.44"/>
	<path class="st2" d="M531.18,1118.01c0,0,13.19-5.58,1.45,7.27c-11.75,12.85-3.97,14.89-3.97,14.89"/>
	<g>
		<path class="st0" d="M950.39,1021.91c0,0-364.59,339.35-366.13,349.77c-1.54,10.42-5.15,28.75-5.15,28.75
			s-34.19,45.11-66.73,12.87s-95.79-142.03-95.79-142.03l-18.83-45.67c0,0-32.54-122.59-32.23-168.53
			c0.31-45.94,56.2-38.4,56.2-38.4s15.44,10.38,23.86,16.65C454.03,1041.58,950.39,1021.91,950.39,1021.91"/>
		<path class="st1" d="M573.26,1377.75c0,0-10.5,50.98-51.7,32.84c0,0-84.83-98.28-116.08-190.48
			c-31.25-92.2-30.12-150.87-11.61-176.58c18.51-25.71,47.02,6.11,39.92,30.84S405.35,1244.06,573.26,1377.75z"/>
		<path class="st8" d="M737.5,1167.99c0,0-28.9,26.02-25.74,10.57c3.15-15.45-0.73-21.58-7.41-11.33s-6.8,10.12-10.48,7.84
			c-3.68-2.27-5.85,20.56-10.81,17.82c-4.96-2.74-4.56-0.2-3.15-10.46s-8.38-8.85-15.62,2.3c-7.24,11.15-19.1,8.57-19.1,8.57
			s6.22-22.2-10.3-12.14c-16.52,10.05-23.47,12.73-24.86,4.87s-15.71-2.98-21.93-4.63c-6.23-1.65-27.41-16.79-34.23-25.34
			c-6.81-8.55-13.84,0.77-4.44,6.68c9.41,5.91,43.46,36.75,43.46,36.75s4.11,12.1,21.69,2.78c0,0,4.35-2.5,7.74,3.24
			c3.38,5.73,13.72,7.56,13.72,7.56s22.78,23.23,24.8,11.63c2.02-11.6-12.5-4.9-5.67-14.46s12.56,2.95,11.02,6.33
			c-1.53,3.37,12.48,26.57,19.51,17.25c7.03-9.32-2.26-18.21-1.69-21.17c0.57-2.96,2.22-11.37,12.81-7.69
			c10.58,3.67,26.59,8.04,44.01,0.09s11.37-7.41,3.52-8.9s-23.47,0.92-12.88-9.39s11.05-0.43,25.97-16.52
			c14.92-16.08-7.62-9.5-13.77-5.88S737.5,1167.99,737.5,1167.99z"/>
		<path class="st8" d="M841.46,1086.84c0,0-41-17.65-31.81-2.26s7.28,23.29-3.78,14.69c-11.06-8.61-11.14-8.42-14.28-4.7
			c-3.14,3.72-14.02-19.9-18.36-15.24c-4.34,4.66-4.86,1.81,0.5,12.27c5.36,10.45-5.76,12.38-17.77,3.02
			c-12-9.36-23.87-2.45-23.87-2.45s15.03,21.52-6.6,16.57c-21.63-4.95-30.16-5.37-28.72,3.5c1.43,8.87-15.88,8.68-22,12.62
			s-23.39,27.52-27.56,39.04s-15.27,4.03-7.3-5.58s33.29-54.45,33.29-54.45s-0.08-14.36,22.43-10.57c0,0,5.64,1.14,7.16-6.16
			s12.02-12.88,12.02-12.88s15.96-32.78,22.48-21.1c6.53,11.68-11.7,9.61-0.73,17.43c10.97,7.81,12.48-7.55,9.56-10.61
			s3.57-32.73,14.66-25.24c11.09,7.49,4.36,20.23,6.08,23.19c1.72,2.96,6.66,11.35,16.73,3.73c10.08-7.63,25.76-17.9,47.58-15.51
			c21.82,2.39,15.08,3.92,7.14,8.26c-7.94,4.34-25.73,7.24-10.43,14.54c15.31,7.3,12.12-3.41,34.28,8.54
			c22.15,11.95-4.69,12.81-12.7,11.09C841.46,1086.84,841.46,1086.84,841.46,1086.84z"/>
		<g>
			<path d="M759.97,1058.67c-0.02,1.85-0.28,3.67-0.59,5.48c-0.34,1.81-0.77,3.61-1.36,5.36c-0.59,1.75-1.22,3.52-2.24,5.1
				c-1.02,1.57-2.26,3.02-3.8,4.07l-0.07-0.07c1.15-1.45,2.14-2.93,3-4.5c0.86-1.57,1.67-3.18,2.34-4.86
				c0.67-1.68,1.19-3.43,1.62-5.2c0.44-1.76,0.82-3.56,0.98-5.38L759.97,1058.67z"/>
		</g>
		<path class="st2" d="M832.35,1049.73c0,0-33.06,0.64-42.15,13.2"/>
		<path class="st2" d="M733.52,1054.88c0,0-13.65,11.12-12.04,19.99"/>
		<path class="st2" d="M806.46,1057.32c-1.47,0.61-12.04,3.26-11.05,7.71"/>
		<path class="st4" d="M440.41,1038.65c0,0-32.14,232.41,138.79,328.62"/>
		<path class="st2" d="M451.48,1046.66c0,0-10.07,97.22,15.86,156.06"/>
		<path class="st2" d="M459.15,1043.19c-0.77,3.15-6.65,74.03-0.61,89.04"/>
		<path class="st2" d="M611.49,1044.49c19.26,2.09,118.54-3.85,118.54-3.85"/>
		<path class="st2" d="M615.41,1052.23c0,0,33.37,3.15,56.78,0.39"/>
		<path class="st2" d="M653.65,1281.83c13.16-9.94,29.97-23.73,29.97-23.73"/>
		<path class="st2" d="M868.79,1071.46c0,0,45.17-22.29,53.49-35.53"/>
		<path class="st2" d="M868.87,1060.53c0,0,30.75-9.92,33.62-17.13"/>
		<path class="st2" d="M417.38,1038.49c0,0-50.63-19.96-34.19,50.95"/>
		<path class="st2" d="M408.26,1043.45c0,0-26.94-2.05-18.41,33.94"/>
		<path class="st2" d="M466.46,1332.71c0,0,67.33,131.33,107.31,47.29"/>
		<path class="st2" d="M519.89,1389.08c0,0,25.13,27.6,38.74-3.52"/>
		<path class="st8" d="M530.37,1083.67c0,0-22.19,43.06-5.28,34.17c16.91-8.89,24.98-6.31,14.98,5.05
			c-10,11.37-9.81,11.46-6.22,15.09c3.59,3.63-22.05,13.81-17.59,18.8c4.47,4.99,1.44,5.37,12.85,0.28s12.39,7.04,1.52,19.37
			s-4.75,25.59-4.75,25.59s23.83-14.79,16.69,8.22c-7.15,23.01-8.37,32.18,1.02,31.22c9.39-0.96,7.6,17.71,11.15,24.58
			s26.58,27.06,38.21,32.32c11.63,5.27,2.8,16.74-6.49,7.51c-9.3-9.23-53.77-39.52-53.77-39.52s-14.99-0.87-8.97-24.9
			c0,0,1.71-6.01-5.77-8.13c-7.49-2.12-12.34-13.82-12.34-13.82s-32.75-19.39-19.96-25.66s8.96,13.26,18.12,1.94
			c9.16-11.31-6.74-13.97-10.2-11.02c-3.46,2.95-33.83-6.02-25-17.49c8.83-11.47,21.52-3.36,24.76-5.03
			c3.24-1.66,12.46-6.43,5.43-17.81c-7.03-11.38-16.31-28.98-11.82-52.37c4.49-23.39,5.48-16.01,9.28-7.15s5.19,28.25,14.22,12.21
			c9.02-16.03-2.44-13.31,12.05-36.42c14.5-23.11,12.94,5.91,10.41,14.44C530.37,1083.67,530.37,1083.67,530.37,1083.67z"/>
		<ellipse class="st10" cx="599.6" cy="1109.16" rx="31.96" ry="40.63"/>
		
			<ellipse transform="matrix(0.931 -0.365 0.365 0.931 -357.0219 298.5961)" class="st19" cx="611.24" cy="1093.58" rx="8.04" ry="18.1"/>
		
			<ellipse transform="matrix(0.7584 -0.6517 0.6517 0.7584 -670.3409 700.8611)" class="st10" cx="610.33" cy="1254.76" rx="25.01" ry="31.65"/>
		
			<ellipse transform="matrix(0.3745 -0.9272 0.9272 0.3745 -769.2673 1338.5365)" class="st19" cx="607.44" cy="1239.42" rx="6.43" ry="13.79"/>
		
			<ellipse transform="matrix(0.9667 -0.2559 0.2559 0.9667 -262.4248 237.6287)" class="st10" cx="781.98" cy="1127.29" rx="28.7" ry="24.99"/>
		
			<ellipse transform="matrix(0.7687 -0.6396 0.6396 0.7687 -539.3812 751.1725)" class="st19" cx="768.96" cy="1121.39" rx="12.98" ry="6.19"/>
		<path class="st2" d="M672.93,1156.64c5.89-2.15,6.06-29.92,62.7-38.1"/>
		<path class="st2" d="M707.68,1145.89c0,0,8.11-19.57,29.07-11.75"/>
		<path class="st2" d="M528.96,1303.56c0,0,29.3,41.09,55.42,48.77"/>
		<line class="st2" x1="596.7" y1="1344.24" x2="638.35" y2="1300.49"/>
		<path class="st2" d="M584.38,1340.15c0,0-12.24-4.98-19.7-22.19"/>
		<path class="st2" d="M550.82,1096.42c-1.74-1.82,15.62-41.21,33.58-40.74"/>
		<path class="st2" d="M555.34,1060.53c0,0,7.44-13.34,15-14.22"/>
	</g>
	<g>
		<path class="st0" d="M951.04,1013.27c0,0-367.36-330.05-368.98-340.25s-5.37-28.15-5.37-28.15s-34.55-43.98-66.87-12.12
			s-94.79,139.97-94.79,139.97l-18.5,44.92c0,0-31.65,120.45-30.99,165.49s56.53,37.23,56.53,37.23s15.37-10.29,23.75-16.5
			C454.21,997.66,951.04,1013.27,951.04,1013.27"/>
		<path class="st1" d="M573.26,669.15c0,0-10.5-50.98-51.7-32.84c0,0-84.83,98.28-116.08,190.48s-30.12,150.87-11.61,176.58
			c18.51,25.71,47.02-6.11,39.92-30.84S405.35,802.84,573.26,669.15z"/>
		<ellipse class="st20" cx="632.61" cy="881.68" rx="110.02" ry="108.43"/>
		
			<ellipse transform="matrix(1 -9.791068e-03 9.791068e-03 1 -8.594 6.2219)" class="st21" cx="631.16" cy="880.83" rx="101.9" ry="97.36"/>
		
			<ellipse transform="matrix(0.9999 -0.0113 0.0113 0.9999 -9.9373 7.2115)" class="st11" cx="631.63" cy="880.82" rx="92.36" ry="86.23"/>
		<path class="st4" d="M440.61,1000.63c0,0-33.9-227.65,136.42-323.26"/>
		<path class="st2" d="M451.63,992.69c0,0-10.8-95.26,14.7-153.14"/>
		<path class="st2" d="M473.54,848.53c-1.23,1.6-10.9,26.74-11.81,50.11"/>
		<path class="st2" d="M459.33,996.04c-0.8-3.08-7.21-72.54-1.27-87.31"/>
		<path class="st2" d="M612.56,994.41c19.26-2.19,118.65,2.89,118.65,2.89"/>
		<path class="st2" d="M616.43,986.8c0,0,33.37-3.34,56.81-0.8"/>
		<path class="st2" d="M869.83,966.07c0,0,45.37,21.52,53.79,34.45"/>
		<path class="st2" d="M869.99,976.78c0,0,30.84,9.5,33.77,16.55"/>
		<path class="st2" d="M417.56,1000.96c0,0-50.52,19.95-34.6-49.71"/>
		<path class="st2" d="M408.4,996.16c0,0-26.94,2.21-18.67-33.14"/>
		<path class="st2" d="M464.47,712.1c0,0,66.39-129.27,107.03-47.17"/>
		<path class="st2" d="M517.52,656.43c0,0,24.94-27.25,38.79,3.16"/>
		<path class="st22" d="M516.42,787.78c0,0,18.18-49.68,36.87-35.47c18.69,14.21,33.67,17.85,12.04,52.46
			c-21.64,34.61-27.79,44.22-19.3,78.45c0,0,32.83,81.41,0.08,56.39c-32.75-25.02-49.69-62.44-51.2-83.02
			S516.42,787.78,516.42,787.78z"/>
		<path class="st8" d="M559.19,746.91l10.93-2.44c0,0,14.8-25.55,25.39-29.82c10.6-4.26,17.29,2.48,16.44,12.81
			c-0.85,10.33-3.66-1.92-8.94-2.54c-5.29-0.62-4.94-4.7-11.62,2.59C584.71,734.81,575.1,749,575.1,749l0.4,18.92l-23.02-19.41
			L559.19,746.91z"/>
		<path class="st6" d="M565.79,770.08c0,0,9.3,12.5-5.79,33.61"/>
		<path class="st6" d="M544.91,824.81c0,0-18.15,21.79-2.63,61.43c15.52,39.64,13.22,40.78,13.22,40.78"/>
		<path class="st22" d="M687.18,956.72c0,0-47.41-24.63-30.53-40.91c16.87-16.28,22.6-30.4,54.38-4.48
			c31.78,25.92,40.58,33.25,76.16,29.7c0,0,86.35-20.76,56.67,7.74c-29.68,28.5-69.63,39.86-90.52,38.48
			C732.45,985.87,687.18,956.72,687.18,956.72z"/>
		<path class="st8" d="M651.87,910.63l-0.93-11.01c0,0-23.63-17.98-26.44-28.92c-2.82-10.93,4.89-16.53,15.15-14.28
			s-2.44,3.3-3.79,8.38c-1.36,5.07-5.41,4.17,0.99,11.7c6.4,7.54,19.32,18.88,19.32,18.88l19.07,2.23l-22.69,19.78L651.87,910.63z"
			/>
		<path class="st6" d="M676.07,907.39c0,0,13.85-7.34,32.97,10.31"/>
		<path class="st6" d="M728.16,935.35c0,0,19.38,20.73,61.36,11.07c41.98-9.66,42.81-7.25,42.81-7.25"/>
		<path class="st2" d="M507.01,921.35c0,0,7.5,49.26,49.76,66.29"/>
		<path class="st2" d="M499.89,942.94c0,0,3.71,26.21,24.21,43.1"/>
		<path class="st2" d="M820.01,916.13c0,0-37.87-13.68-51.97,0.74"/>
		<path class="st2" d="M812.51,900.63c0,0-32.39-10.1-37.89-2.35"/>
	</g>
	<g>
		<path class="st0" d="M957.42,1007.76c0,0-337.73-362.05-348.04-363.52c-10.31-1.47-28.43-4.95-28.43-4.95s-44.79-33.86-13.17-66.6
			c31.63-32.74,139.66-96.7,139.66-96.7l44.99-19.13c0,0,120.89-33.36,166.28-33.36s38.31,55.91,38.31,55.91
			s-10.15,15.5-16.29,23.96C934.6,511.83,957.42,1007.76,957.42,1007.76"/>
		<path class="st1" d="M606.07,630.3c0,0-50.95-10.63-32.7-51.78c0,0,98.5-84.58,190.78-115.58s150.95-29.72,176.61-11.14
			c25.66,18.58-6.23,47-30.94,39.83C885.11,484.45,740.2,462.73,606.07,630.3z"/>
		<path class="st4" d="M937.69,498.2c0,0-229.81-30.54-323.7,140.94"/>
		<path class="st2" d="M929.85,509.32c0,0-96.12-9.4-154.06,16.91"/>
		<path class="st2" d="M784.13,532.5c1.59-1.25,26.78-11.28,50.31-12.53"/>
		<path class="st2" d="M933.33,516.96c-3.11-0.75-73.18-6.14-87.97,0"/>
		<path class="st2" d="M933.08,669.21c-1.93,19.26,4.61,118.44,4.61,118.44"/>
		<path class="st2" d="M925.47,673.19c0,0-2.88,33.37,0,56.75"/>
		<path class="st2" d="M698.91,712.97c9.91,13.09,23.65,29.79,23.65,29.79"/>
		<path class="st2" d="M908.2,926.54c0,0,22.33,44.99,35.47,53.21"/>
		<path class="st2" d="M919,926.54c0,0,10.01,30.66,17.16,33.48"/>
		<path class="st2" d="M937.69,475.18c0,0,19.38-50.74-50.57-33.83"/>
		<path class="st2" d="M932.73,466.1c0,0,1.84-26.94-33.66-18.17"/>
		<path class="st2" d="M647.37,526.23c0,0-129.28,68.19-45.99,107.57"/>
		<path class="st2" d="M592.04,580.02c0,0-27.09,25.3,3.74,38.69"/>
		<g>
			<path class="st23" d="M875.91,793.94c11.52,8.22,45.14,28.06,21.8,48.86c-23.34,20.8-28.37,46.35-57.06,13.38
				c-28.69-32.97-73.73-73.44-73.73-73.44s-42.36-13.59-10.29-40.64c11.22-9.46,39.68-36.61,57.06-13.38
				C840.43,764.46,875.91,793.94,875.91,793.94z"/>
			<path class="st24" d="M874.7,867.24L760.11,739.37c0,0-36.34,24.53,7.09,43.38c0,0,83.88,81.48,90.89,87.94
				C865.1,877.14,874.7,867.24,874.7,867.24z"/>
			<polygon class="st25" points="760.11,739.37 785.47,722.12 898,842.81 874.7,867.24 			"/>
		</g>
		<path class="st26" d="M946.77,902.8c-4.73,0.06-8.05,0.39-8.05,0.39c-3.95-8.75-11.76-30.55-29.79-28.65
			c-18.03,1.91-17.65,39.77-17.65,39.77c0.34-0.12-2.87,0.53-9.04,3.05l-2.56,0.87c-1.04,0.44-2.13,0.93-3.22,1.47l-4.06-10.63
			c3.22-2,5.49-3.04,5.49-3.04s0.22-38.26,25.29-40.91c25.07-2.65,35.18,13.27,40.67,25.44c0,0,2.52-0.01,6.34,0.31l2.72,13.02
			c-3.11-0.22-6.12-0.26-8.7-0.23"/>
		<path class="st2" d="M851.33,734.18c0,0,14.68,39.26,46.74,51.15"/>
		<path class="st2" d="M870.32,730.49c0,0,3.53,16.46,14.93,28.66"/>
		<path class="st2" d="M679.63,577.41c0,0-31.09,60.1,21.28,72.54"/>
		<path class="st2" d="M657.61,613.68c0,0-23.99,38.57,14.84,47.02"/>
		<path class="st27" d="M817.89,686.64c0,0,13.71,0.9,28.53-23.62c14.82-24.52-17.7-49.29-17.7-49.29c5.65-8.41,4.26-21.8,4.26-21.8
			c-1.01-45-48.22-38.27-48.22-38.27s47.75,28.86,32.65,45.71c-15.1,16.85,5.04,30.93,5.04,30.93l11.99,30.41L817.89,686.64z"/>
		<path class="st28" d="M736.43,707.71c-54.21-10.92-26.39-66.04-26.39-66.04s-34.05-13.87-20.56-48.52
			c13.49-34.65,58.58-18.56,58.58-18.56s31.59-33.34,55.51-14.5s19.64,41.33,14.42,56.63c0,0,36.81,35.45,17.95,56.17
			S799,692.3,776.91,687.85C776.91,687.85,758.51,712.17,736.43,707.71z"/>
		<path class="st29" d="M731.06,693.79c-38.98-7.86-0.32-58.45-0.32-58.45s-36.39-15.49-26.69-40.41s45.9-3.17,45.9-3.17
			s30.74-33.51,47.95-19.96c17.21,13.55,6.09,39.25,2.35,50.25c0,0,37.76,30.11,24.2,45.02c-13.56,14.9-37.87,9.34-53.75,6.14
			C770.7,673.2,746.94,696.99,731.06,693.79z"/>
		<path class="st2" d="M766.1,590.55c0,0,40.18-32.33,34.15,11.4"/>
		<path class="st2" d="M783.91,587.11c0,0,13.09-6.97,9.44,6.69"/>
		<path class="st2" d="M805.31,641.4c0,0,31.71,18.31-1.2,26.72"/>
		<path class="st2" d="M717.09,617.47c0,0-20.95-28.79,14.2-26.56"/>
		<path class="st2" d="M728.45,651.36c0,0-22.11,58.18,28.51,18.72"/>
		<path class="st2" d="M729.61,663.19c0,0-6.19,24.05,12.39,11.35"/>
		<path class="st30" d="M903.73,863.37c0,0,30.69-1.26,39.94,17.64c9.25,18.89,4.62,8.31,4.62,8.31l-6.34-0.31
			C941.96,889.01,932.76,859.51,903.73,863.37z"/>
		<path class="st2" d="M919,849.51c0,0,17.29-2.48,23.31,10.67"/>
		<rect x="945.39" y="566.5" class="st3" width="22.56" height="7.56"/>
		<path class="st6" d="M790.47,720.44"/>
		<g>
			<path class="st23" d="M858.74,645.93c-3.07,13.81-14.26,51.17,12.06,49.92c26.32-1.26,43.3,13.5,44.24-29.82
				c0.94-43.32,8.48-103.28,8.48-103.28s20.22-38.93-15.13-36.1c-12.37,0.99-45.42,1.25-44.24,29.82
				C865.96,600.41,858.74,645.93,858.74,645.93z"/>
			<path class="st24" d="M898.85,697.4l5.81-170.32c0,0,36.77-7.57,18.68,35.85c0,0-10.76,116.03-11.84,125.47
				C910.4,697.84,898.85,697.4,898.85,697.4z"/>
			<polygon class="st25" points="904.66,527.09 878.93,532.28 870.61,696.04 898.85,697.4 			"/>
		</g>
	</g>
</g>
</svg>
